<?xml version="1.0" encoding="UTF-8" standalone="no"?>
<svg
   xmlns:dc="http://purl.org/dc/elements/1.1/"
   xmlns:cc="http://creativecommons.org/ns#"
   xmlns:rdf="http://www.w3.org/1999/02/22-rdf-syntax-ns#"
   xmlns:svg="http://www.w3.org/2000/svg"
   xmlns="http://www.w3.org/2000/svg"
   xmlns:sodipodi="http://sodipodi.sourceforge.net/DTD/sodipodi-0.dtd"
   xmlns:inkscape="http://www.inkscape.org/namespaces/inkscape"
   version="1.1"
   id="svg3415"
   viewBox="0 0 937.5 937.5"
   height="1000"
   width="1000"
   sodipodi:docname="cabra_bbox_fail.svg"
   inkscape:version="0.91 r13725">
  <sodipodi:namedview
     pagecolor="#ffffff"
     bordercolor="#666666"
     borderopacity="1"
     objecttolerance="10"
     gridtolerance="10"
     guidetolerance="10"
     inkscape:pageopacity="0"
     inkscape:pageshadow="2"
     inkscape:window-width="1278"
     inkscape:window-height="1048"
     id="namedview33"
     showgrid="false"
     inkscape:zoom="0.64"
     inkscape:cx="546.48889"
     inkscape:cy="285.50949"
     inkscape:current-layer="svg3415"
     units="px"
     inkscape:window-x="8"
     inkscape:window-y="0"
     inkscape:window-maximized="0" />
  <defs
     id="defs3417" />
  <metadata
     id="metadata3420">
    <rdf:RDF>
      <cc:Work
         rdf:about="">
        <dc:format>image/svg+xml</dc:format>
        <dc:type
           rdf:resource="http://purl.org/dc/dcmitype/StillImage" />
        <dc:title />
      </cc:Work>
    </rdf:RDF>
  </metadata>
  <g
     id="layer1"
     transform="matrix(1.3738924,0,0,1.2327948,-8.9265159,-139.15491)"
     style="fill:none;stroke:#000000;stroke-width:1.63161514;stroke-miterlimit:4;stroke-dasharray:none;stroke-opacity:1"
     inkscape:export-xdpi="104"
     inkscape:export-ydpi="104">
    <path
       id="path3352"
       d="m 99.63742,321.93565 c 0.242,-1.41 1.35758,-9.17065 1.61958,-10.54465 22.494,-117.833 117.496,-105.873 151.477,-181.512 -0.723,6.011 -2.738,11.387 -4.766,16.38 -21.631,53.255 -106.236,56.723 -125.273,152.561 -0.549,2.766 -1.044,5.609 -1.481,8.532"
       style="fill:none;fill-rule:evenodd;stroke:#000000;stroke-width:1.63161514;stroke-linecap:butt;stroke-linejoin:miter;stroke-miterlimit:4;stroke-dasharray:none;stroke-opacity:1"
       inkscape:connector-curvature="0"
       sodipodi:nodetypes="cscssc" />
    <path
       id="path3356"
       d="m 122.695,298.82 c 3.909,-0.193 7.925,-0.41075 10.91,-0.457 4.02834,-0.0624 7.26987,0.007 9.87268,0.20179 4.73651,0.35499 7.35782,1.12701 8.75632,2.28221"
       style="fill:none;fill-rule:evenodd;stroke:#000000;stroke-width:1.63161514;stroke-linecap:butt;stroke-linejoin:miter;stroke-miterlimit:4;stroke-dasharray:none;stroke-opacity:1"
       inkscape:connector-curvature="0"
       sodipodi:nodetypes="cssc" />
    <path
       id="path3358"
       d="m 125.143,319.495 c 6.18,-8.887 16.05186,-14.78648 27.091,-18.648 15.18325,-5.31114 32.57545,-6.76984 45.61111,-6.85093 5.2447,-0.0326 9.7842,0.15774 13.19089,0.40993 -10.997,7.752 -21.882,12.583 -36.946,22.2 -8.013,5.116 -17.209,11.585 -28.233,20.568"
       style="fill:none;fill-rule:evenodd;stroke:#000000;stroke-width:1.63161514;stroke-linecap:butt;stroke-linejoin:miter;stroke-miterlimit:4;stroke-dasharray:none;stroke-opacity:1"
       inkscape:connector-curvature="0"
       sodipodi:nodetypes="csscsc" />
    <path
       id="path3360"
       d="m 174.09,316.606 c 10.46297,8.44006 6.886,65.687 37.838,114.853 2.963,3.861 13.203,-0.514 21.965,4.108 5.208,2.738 16.792,-4.566 30.178,0.446 5.471,2.077 8.814,10.895 24.018,11.429 13.939,10.831 36.547,1.941 85.126,10.109 23.96,4.364 62.208,-12.711 111.116,1.768 17.953,3.59 31.71,10.191 42.03,18.644 9.895,8.104 16.629,17.911 20.872,28.398 14.589,36.067 -0.296,80.183 -17.477,90.79 -1.928,1.19 -3.867,1.983 -5.776,2.326"
       style="fill:none;fill-rule:evenodd;stroke:#000000;stroke-width:1.63161516;stroke-linecap:butt;stroke-linejoin:miter;stroke-miterlimit:4;stroke-dasharray:none;stroke-opacity:1"
       inkscape:connector-curvature="0"
       sodipodi:nodetypes="cccccccsssc" />
    <path
       id="path3362"
       d="m 526.361,477.963 c 17.635,-0.437 42.1683,7.8523 69.11688,53.61134 28.7228,291.66955 -12.75965,493.42136 -27.30388,14.61766 -4.678,-7.51 -6.704,-28.64 -20.941,-39.831"
       style="fill:none;fill-rule:evenodd;stroke:#000000;stroke-width:1.63161516;stroke-linecap:butt;stroke-linejoin:miter;stroke-miterlimit:4;stroke-dasharray:none;stroke-opacity:1"
       inkscape:connector-curvature="0"
       sodipodi:nodetypes="cccc" />
    <path
       id="path3364"
       d="m 530.041,514.624 c 13.065,15.744 14.012,47.355 -6.061,84.853 -11.708,33.694 5.584,41.886 8.451,43.971 1.496,1.127 3.233,3.186 5.186,5.874 6.503,8.951 15.401,24.87 25.759,36.523 13.129,10.97 3.812,18.303 1.605,25.936 3.08,78.598 -3.647,12.013 -6.569,85.782"
       style="fill:none;fill-rule:evenodd;stroke:#000000;stroke-width:1.63161514;stroke-linecap:butt;stroke-linejoin:miter;stroke-miterlimit:4;stroke-dasharray:none;stroke-opacity:1"
       inkscape:connector-curvature="0"
       sodipodi:nodetypes="cccsccc" />
    <path
       id="path3366"
       d="m 558.412,797.563 c -2.738,6.299 -3.001,15.971 -1.598,24.678 4.282,5.732 -12.915,15.158 -1.519,18.158 5.416,11.45 -16.661,7.748 -28.032,8.333 -12.103,-0.627 -2.886,-5.507 -3.283,-9.091 12.762,-19.757 27.06,-86.032 12.374,-122.481 -20.944,-35.473 -75.64,-62.496 -104.553,-100.827 -10.446,-13.849 -17.526,-29.174 -18.433,-46.908"
       style="fill:none;fill-rule:evenodd;stroke:#000000;stroke-width:1.63161514;stroke-linecap:butt;stroke-linejoin:miter;stroke-miterlimit:4;stroke-dasharray:none;stroke-opacity:1"
       inkscape:connector-curvature="0"
       sodipodi:nodetypes="ccccccsc" />
    <path
       id="path3368"
       d="m 431.801,616.333 c -14.80499,4.59667 -27.49247,7.51832 -38.70256,9.16111 -17.3238,3.18002 -34.99633,1.47838 -51.98277,-2.01935 -23.50922,-4.84085 -45.70423,-13.12203 -63.84167,-16.66376 -11.208,-1.855 -22.11,-3.451 -31.304,-4.046"
       style="fill:none;fill-rule:evenodd;stroke:#000000;stroke-width:1.63161516;stroke-linecap:butt;stroke-linejoin:miter;stroke-miterlimit:4;stroke-dasharray:none;stroke-opacity:1"
       inkscape:connector-curvature="0"
       sodipodi:nodetypes="ccscc" />
    <path
       id="path3370"
       d="m 271.189,564.627 c -11.091,11.108 -26.967,8.79 -25.219,38.138 0.257,5.623 -1.041,15.536 -3.07,27.853 -4.968,30.162 -11.97,73.095 -13.561,104.346 -2.603,23.236 -0.976,39.636 -5.122,53.412 -1.614,6.606 0.901,24.909 -15.152,32.577 -3.978,2.964 -30.117,5.226 -16.463,-12.115 28.498,-22.552 4.769,-19.058 19.47,-55.814 4.91,-50.846 8.52,-118.146 5.575,-171.913"
       style="fill:none;fill-rule:evenodd;stroke:#000000;stroke-width:1.63161514;stroke-linecap:butt;stroke-linejoin:miter;stroke-miterlimit:4;stroke-dasharray:none;stroke-opacity:1"
       inkscape:connector-curvature="0"
       sodipodi:nodetypes="ccscccccc" />
    <path
       id="path3372"
       d="m 192.397,527.251 c 0.883,34.464 26.064,-0.119 25.25,53.86 -20.651,-6.698 -22.268,-17.159 -23.754,-18.491 -95.4045,-129.989 -29.306,-93.184 -82.308,-175.275 -8.244,-1.966 -33.7372,1.818 -57.5786,5.051 -13.344,4.037 -13.3449,-8.441 -16.1562,-20.806 -0.8395,-14.474 2.3939,-14.678 38.1957,-31.39 6.3656,-6.664 10.5979,-4.36 11.5968,-17.133 0.3429,-6.767 13.6143,-11.676 13.6143,-11.676"
       style="fill:none;fill-rule:evenodd;stroke:#000000;stroke-width:1.63161514;stroke-linecap:butt;stroke-linejoin:miter;stroke-miterlimit:4;stroke-dasharray:none;stroke-opacity:1"
       inkscape:connector-curvature="0"
       sodipodi:nodetypes="ccccccccc" />
    <path
       id="path3378"
       d="m 133.605,298.363 c 8.526,-88.538 98.328,-80.329 114.363,-152.104"
       style="fill:none;fill-rule:evenodd;stroke:#000000;stroke-width:1.63161514;stroke-linecap:butt;stroke-linejoin:miter;stroke-miterlimit:4;stroke-dasharray:none;stroke-opacity:1"
       inkscape:connector-curvature="0"
       sodipodi:nodetypes="cc" />
    <path
       id="path3382"
       d="m 277.274,606.811 c -9.993,25.696 -8.327,51.17 -7.118,79.102 -5.776,70.717 0.567,95.068 8.915,111.796"
       style="fill:none;fill-rule:evenodd;stroke:#000000;stroke-width:1.63161514;stroke-linecap:butt;stroke-linejoin:miter;stroke-miterlimit:4;stroke-dasharray:none;stroke-opacity:1"
       inkscape:connector-curvature="0"
       sodipodi:nodetypes="ccc" />
    <path
       id="path3386"
       d="m 278.923,797.121 c 2.142,6.396 2.347,12.679 0.715,16.072 -6.294,9.033 -11.049,9.128 -14.495,9.516 -6.82,0.977 -13.502,-4.897 -7.417,-10.061 11.872,-14.806 1.899,-68.245 -1.786,-75.714 -15.568,-23.025 -2.817,-78.684 -13.04,-106.316"
       style="fill:none;fill-rule:evenodd;stroke:#000000;stroke-width:1.63161514;stroke-linecap:butt;stroke-linejoin:miter;stroke-miterlimit:4;stroke-dasharray:none;stroke-opacity:1"
       inkscape:connector-curvature="0"
       sodipodi:nodetypes="cccccc" />
    <path
       sodipodi:nodetypes="ccc"
       inkscape:connector-curvature="0"
       style="fill:none;fill-rule:evenodd;stroke:#000000;stroke-width:1.63161516;stroke-linecap:butt;stroke-linejoin:miter;stroke-miterlimit:4;stroke-dasharray:none;stroke-opacity:1"
       d="m 393.4695,625.54817 c -3.308,25.696 6.61381,50.78596 7.82281,78.71796 -5.776,70.717 0.567,95.068 8.915,111.796"
       id="path4219" />
    <path
       sodipodi:nodetypes="cccccc"
       inkscape:connector-curvature="0"
       style="fill:none;fill-rule:evenodd;stroke:#000000;stroke-width:1.63161516;stroke-linecap:butt;stroke-linejoin:miter;stroke-miterlimit:4;stroke-dasharray:none;stroke-opacity:1"
       d="m 410.05931,815.47413 c 2.142,6.396 2.347,12.679 0.715,16.072 -6.294,9.033 -11.049,9.128 -14.495,9.516 -6.82,0.977 -23.30292,-11.61864 -17.21792,-16.78264 11.872,-14.806 -5.64017,-59.00274 -9.32517,-66.47174 -15.568,-23.025 -18.41149,-106.68967 -28.63449,-134.32167"
       id="path4221" />
  </g>
  <path
     style="fill:none;stroke:#000000;stroke-width:1.336875;stroke-linecap:butt;stroke-linejoin:miter;stroke-miterlimit:4;stroke-dasharray:none;stroke-opacity:1"
     d="m 188.19638,228.91421 c 30.07909,-20.66179 55.41544,-17.15895 90.27862,-15.64951 l -15.58362,10.01722"
     id="path21"
     inkscape:connector-curvature="0"
     sodipodi:nodetypes="ccc" />
</svg>
