<?xml version="1.0" encoding="UTF-8" standalone="no"?>
<!-- Created with Inkscape (http://www.inkscape.org/) -->

<svg
   xmlns:dc="http://purl.org/dc/elements/1.1/"
   xmlns:cc="http://creativecommons.org/ns#"
   xmlns:rdf="http://www.w3.org/1999/02/22-rdf-syntax-ns#"
   xmlns:svg="http://www.w3.org/2000/svg"
   xmlns="http://www.w3.org/2000/svg"
   xmlns:sodipodi="http://sodipodi.sourceforge.net/DTD/sodipodi-0.dtd"
   xmlns:inkscape="http://www.inkscape.org/namespaces/inkscape"
   width="1000"
   height="1000"
   viewBox="0 0 264.58333 264.58334"
   version="1.1"
   id="svg8"
   inkscape:version="0.92.4 (5da689c313, 2019-01-14)"
   sodipodi:docname="cacto_explanation.svg">
  <defs
     id="defs2" />
  <sodipodi:namedview
     id="base"
     pagecolor="#ffffff"
     bordercolor="#666666"
     borderopacity="1.0"
     inkscape:pageopacity="0.0"
     inkscape:pageshadow="2"
     inkscape:zoom="0.70000001"
     inkscape:cx="338.26229"
     inkscape:cy="517.0086"
     inkscape:document-units="px"
     inkscape:current-layer="layer1"
     showgrid="false"
     inkscape:window-width="1278"
     inkscape:window-height="1048"
     inkscape:window-x="-7"
     inkscape:window-y="0"
     inkscape:window-maximized="0"
     units="px" />
  <metadata
     id="metadata5">
    <rdf:RDF>
      <cc:Work
         rdf:about="">
        <dc:format>image/svg+xml</dc:format>
        <dc:type
           rdf:resource="http://purl.org/dc/dcmitype/StillImage" />
        <dc:title />
      </cc:Work>
    </rdf:RDF>
  </metadata>
  <g
     inkscape:label="Camada 1"
     inkscape:groupmode="layer"
     id="layer1"
     transform="translate(0,-32.41665)">
    <path
       style="fill:none;stroke:#000000;stroke-width:0.63499999;stroke-linecap:butt;stroke-linejoin:miter;stroke-miterlimit:4;stroke-dasharray:none;stroke-opacity:1"
       d="m 99.372846,164.8459 c -2.250049,-0.34617 -4.402438,-0.73931 -7.264444,-1.08255 m 1.265315,23.69542 c -5.576422,-0.77966 -11.157494,-0.46079 -16.504898,-1.34879 m 0,0 c -5.04228,-0.83733 -9.876797,-2.74774 -14.303745,-7.66406 m 12.492418,16.20591 c -15.260165,-1.89441 -12.435307,-8.71557 -12.492418,-16.20591 -1.889705,-20.12915 -1.868088,-31.53811 -0.216748,-44.49216 9.042848,-14.10224 18.456292,-3.97882 19.993587,3.02932 0,0 -1.23306,21.51835 3.786655,25.44632 0.432291,0.33828 2.92821,0.78921 5.979834,1.33396 L 91.555345,115.69795 C 108.30839,84.14507 114.94908,102.37512 124.11459,113.5559 l 0.69568,62.43402 c -1.84997,4.87833 5.99515,8.41955 12.58507,0.54245 l 3.8557,-30.84562 c 2.9261,-8.84828 17.99329,-2.99889 17.99329,-2.99889 8.13529,29.97976 2.86841,33.15519 4.2841,49.69573 -11.35934,14.06603 -16.36489,10.65912 -23.56262,13.28073 -16.89391,1.60018 -14.99439,17.56488 -14.99439,17.56488 -9.99626,5.59779 -19.99253,5.39803 -29.988795,-0.42841 l -1.396928,-28.32095 c -8.649934,0.66611 -14.319874,0.69442 -18.528205,0.17199 m 18.528205,-0.17199 -0.06893,-2.5535 -0.0362,-1.34085 -0.106856,-3.12671 c 3.981391,0.11255 6.200577,-0.16353 7.937139,-0.26003"
       id="path4500"
       inkscape:connector-curvature="0"
       sodipodi:nodetypes="ccccccccccscccccccccccccccccc"
       inkscape:export-filename="C:\Users\srdcp\Documents\Thesis_PhD\final\cactus_algorithm_sucess.png"
       inkscape:export-xdpi="104"
       inkscape:export-ydpi="104" />
  </g>
  <g
     inkscape:groupmode="layer"
     id="layer2"
     inkscape:label="Camada 2">
    <path
       style="opacity:1;fill:#2a97e8;fill-opacity:1;stroke:none;stroke-width:0.32072344;stroke-miterlimit:4;stroke-dasharray:none;stroke-dashoffset:0;stroke-opacity:1"
       d="m 79.691733,162.24053 c -7.38218,-0.28566 -12.30151,-1.62127 -14.71263,-3.99452 -1.00679,-0.99097 -1.4914,-1.85075 -1.87366,-3.3242 -0.22424,-0.86437 -0.26497,-1.45649 -0.26284,-3.82156 0.001,-1.53928 0.0412,-3.05651 0.0884,-3.37162 l 0.0859,-0.57291 0.95407,0.87536 c 4.13062,3.7898 8.68196,5.69001 15.31982,6.39614 1.06574,0.11337 3.68164,0.29704 5.81311,0.40816 3.9605,0.20646 6.75862,0.41034 7.49627,0.54618 l 0.41362,0.0762 0.0875,2.41586 c 0.0481,1.32872 0.0875,2.76033 0.0875,3.18137 0,0.75901 -0.004,0.76616 -0.43431,0.84132 -1.46441,0.2556 -9.72657,0.47334 -13.0628,0.34424 z"
       id="path4599"
       inkscape:connector-curvature="0"
       inkscape:export-filename="C:\Users\srdcp\Documents\Thesis_PhD\final\cactus_algorithm_sucess.png"
       inkscape:export-xdpi="104"
       inkscape:export-ydpi="104" />
    <path
       style="opacity:1;fill:#0372de;fill-opacity:0.36862745;stroke:none;stroke-width:0.32072344;stroke-miterlimit:4;stroke-dasharray:none;stroke-dashoffset:0;stroke-opacity:1"
       d="m 91.257043,154.51296 c -0.85137,-0.0982 -3.4372,-0.27733 -5.74629,-0.39818 -2.30909,-0.12085 -5.04025,-0.30993 -6.06924,-0.42018 -6.2498,-0.66959 -10.61898,-2.44225 -14.58826,-5.91875 -2.00504,-1.75612 -1.83544,-1.29823 -2.23317,-6.02911 -1.18021,-14.03801 -1.34407,-24.02311 -0.54717,-33.34187 0.56662,-6.62585 0.55639,-6.58041 1.87553,-8.33525 3.64188,-4.844771 7.77467,-6.331489 11.68134,-4.202204 1.08855,0.593299 1.31501,0.768794 2.51988,1.952791 1.48081,1.455145 2.66903,3.340603 3.41527,5.419363 l 0.35249,0.9819 0.0472,6.16756 c 0.026,3.39215 0.11766,6.88918 0.20376,7.77117 0.39414,4.03735 0.97947,7.06543 1.75492,9.07873 0.5112,1.3272 1.46424,2.77677 2.07299,3.153 0.55986,0.34601 3.81045,1.03664 7.20998,1.53186 3.95182,0.57567 5.738953,0.87497 5.823003,0.97517 0.0437,0.0521 0.490317,4.89242 0.992504,10.7563 0.65173,7.60994 0.87192,10.70275 0.76928,10.80539 -0.22888,0.22888 -7.649257,0.26959 -9.534047,0.0523 z"
       id="path4601"
       inkscape:connector-curvature="0"
       inkscape:export-filename="C:\Users\srdcp\Documents\Thesis_PhD\final\cactus_algorithm_sucess.png"
       inkscape:export-xdpi="104"
       inkscape:export-ydpi="104" />
  </g>
</svg>
