<?xml version="1.0" encoding="UTF-8" standalone="no"?>
<!-- Created with Inkscape (http://www.inkscape.org/) -->

<svg
   xmlns:dc="http://purl.org/dc/elements/1.1/"
   xmlns:cc="http://creativecommons.org/ns#"
   xmlns:rdf="http://www.w3.org/1999/02/22-rdf-syntax-ns#"
   xmlns:svg="http://www.w3.org/2000/svg"
   xmlns="http://www.w3.org/2000/svg"
   xmlns:sodipodi="http://sodipodi.sourceforge.net/DTD/sodipodi-0.dtd"
   xmlns:inkscape="http://www.inkscape.org/namespaces/inkscape"
   width="1000"
   height="1000"
   viewBox="0 0 264.58333 264.58334"
   version="1.1"
   id="svg8"
   sodipodi:docname="candelabro.svg"
   inkscape:version="0.92.3 (2405546, 2018-03-11)">
  <defs
     id="defs2" />
  <sodipodi:namedview
     id="base"
     pagecolor="#ffffff"
     bordercolor="#666666"
     borderopacity="1.0"
     inkscape:pageopacity="0.0"
     inkscape:pageshadow="2"
     inkscape:zoom="0.98994949"
     inkscape:cx="343.75928"
     inkscape:cy="670.9842"
     inkscape:document-units="px"
     inkscape:current-layer="layer1"
     showgrid="false"
     inkscape:window-width="2560"
     inkscape:window-height="1017"
     inkscape:window-x="-8"
     inkscape:window-y="-8"
     inkscape:window-maximized="1"
     units="px" />
  <metadata
     id="metadata5">
    <rdf:RDF>
      <cc:Work
         rdf:about="">
        <dc:format>image/svg+xml</dc:format>
        <dc:type
           rdf:resource="http://purl.org/dc/dcmitype/StillImage" />
        <dc:title></dc:title>
      </cc:Work>
    </rdf:RDF>
  </metadata>
  <g
     inkscape:label="Camada 1"
     inkscape:groupmode="layer"
     id="layer1"
     transform="translate(0,-32.41665)">
    <path
       style="fill:none;stroke:#020000;stroke-width:1.64088547;stroke-linecap:butt;stroke-linejoin:miter;stroke-miterlimit:4;stroke-dasharray:none;stroke-opacity:1"
       d="m 38.334997,132.89759 c 21.332798,-3.5496 11.263615,-8.03161 0.762902,-8.01999 -1.100472,9.9e-4 -1.941384,-2.53898 -0.218239,-2.70582 1.04707,-0.10078 3.441615,-0.79825 2.612525,-1.50744 -2.741909,-2.34419 -3.421206,-8.06564 -0.547395,-11.41058 1.054434,-1.22744 -1.970105,-1.97089 -4.301871,-1.51222 1.390565,-22.94679 -2.887417,-40.513846 -0.671631,-61.824541 -3.393204,3.293319 -4.040584,0.585501 -5.716996,0.126393 2.215967,21.310599 -2.061915,38.87775 -0.671662,61.824568 -2.331737,-0.45822 -5.356295,0.28454 -4.301831,1.51212 2.873806,3.34502 2.194416,9.06649 -0.547406,11.41066 -0.828901,0.70913 1.565463,1.40599 2.612441,1.50745 1.722671,0.16646 0.882254,2.7071 -0.218271,2.70586 -10.500335,-0.0101 -20.5695133,4.47036 0.287376,7.6856 4.417356,-0.0544 -0.676513,61.61637 13.499849,68.41085 20.508483,9.20572 55.679524,-53.89396 87.341522,-10.25462 -1.303,8.09927 -2.68515,3.98956 -0.95214,39.23454 -0.14368,2.41808 -1.91699,4.39983 -3.58178,6.41074 -2.78248,13.03123 -0.9444,21.73385 -1.4159,32.60091 -2.57818,7.03816 -5.46124,11.29228 -3.84865,13.89119 l 15.93597,0.2864 m 0,0 16.17401,-0.2864 c 1.61264,-2.59891 -1.27054,-6.85303 -3.84861,-13.89119 -0.47169,-10.86706 1.36652,-19.56968 -1.41596,-32.60091 -1.66484,-2.01089 -3.43864,-3.99266 -3.58176,-6.41074 1.73317,-35.24499 0.35136,-31.13529 -0.95215,-39.23454 m 0,0 c 31.66196,-43.63934 66.83309,19.46034 87.34141,10.25462 14.1762,-6.79448 9.08251,-68.46704 13.49984,-68.41085 20.8568,-3.21524 10.78766,-7.69726 0.28739,-7.6856 -1.10044,9.5e-4 -1.94146,-2.53902 -0.21838,-2.70586 1.04694,-0.10077 3.44155,-0.79822 2.61251,-1.50745 -2.74191,-2.34417 -3.42137,-8.06564 -0.5474,-11.41066 1.05444,-1.22736 -1.97015,-1.97077 -4.30187,-1.51212 1.39044,-22.946818 -2.88742,-40.513969 -0.67163,-61.824568 -1.67636,0.459163 -2.3237,3.167051 -5.71696,-0.126393 2.21593,21.310695 -2.06192,38.877751 -0.67163,61.824541 -2.33187,-0.45819 -5.35642,0.28457 -4.3019,1.51208 2.87383,3.34508 2.1944,9.06653 -0.54741,11.41072 -0.82886,0.70914 1.56554,1.40599 2.61256,1.50737 1.72267,0.16717 0.88226,2.70729 -0.21839,2.70589 -10.50034,-0.0101 -20.56942,4.47039 0.76384,8.01999 7.74999,1.52038 -0.0778,54.8991 -9.79393,58.37829 -10.83738,-21.054 -68.92945,-37.51207 -79.11734,-21.52755 0.8871,-3.63807 3.50761,-12.63612 3.35151,-23.85803 1.13833,-1.8948 -1.23991,-2.43491 -2.3122,-3.03319 -0.86283,-1.77777 -1.41863,-3.62673 -2.89993,-4.39059 0.39602,-1.34137 -0.76193,-1.64294 -1.37516,-2.30878 -2.86575,-1.42991 -1.36403,-2.64463 -1.51449,-3.94073 0.54354,-0.14891 1.00818,-0.27831 0.92597,-2.4799 0,0 1.35455,0.0636 2.18757,-0.27911 0.70852,2.05471 2.42235,2.60137 3.87054,3.54671 2.07947,4.19563 3.28391,4.29337 3.61803,0.31546 1.50088,-6.15057 5.20722,-6.24828 8.98345,-6.69047 5.7452,-0.67274 9.67665,6.24926 8.60221,9.60667 -0.0969,1.36229 -0.54062,2.95793 3.1973,1.73393 9.14265,10.94054 19.9357,10.33782 29.88913,5.24979 4.67662,-2.39049 4.99325,-6.5926 8.98419,-11.47622 0.46204,-0.28363 0.40863,-1.13632 0.87353,-1.25588 3.15112,-0.81004 4.32033,-2.54016 0.71049,-5.96474 l -0.65417,-1.39331 c 4.38804,-10.44452 8.94724,-6.00308 13.55237,-8.31841 l 0.0388,-3.55883 -13.83417,0.37003 1.43049,-1.33991 c 4.61198,-1.04198 3.18365,-5.59354 1.88598,-7.23751 -0.47077,-2.86361 -1.45928,-5.533175 1.29696,-9.605868 L 214.103,91.705486 V 90.36565 l -10.39152,0.11808 -11.14866,-0.11808 v 1.339836 l 1.51456,1.733956 c 2.7562,4.072693 1.76738,6.742258 1.29693,9.605868 -1.29758,1.64397 -2.72591,6.19553 1.88597,7.23751 l 1.43038,1.33991 -13.83402,-0.37003 -0.11952,3.4796 c 4.60506,2.31534 9.57527,-2.1258 13.9633,8.31882 1.53412,0.16006 1.52671,1.95083 1.50642,3.98272 -2.22632,14.82254 -11.16226,14.43752 -17.93016,12.82406 -2.60741,-0.62186 -4.14559,-1.50075 -6.076,-2.95014 1.19381,-2.22902 -0.10097,-3.6795 -3.83837,-4.85813 -10.83634,-14.97726 -16.381,-10.47116 -18.92003,-10.47742 -2.5023,0.85459 -10.51025,5.12165 -12.13731,4.40273 -0.11951,0.22288 -1.66593,1.00316 -1.66593,1.00316 h -1.60643 l 0.0585,-1.72762 c -3.43384,-2.43719 -0.93177,-4.36896 0.2971,-6.40909 4.76809,-0.43367 2.80237,-3.83516 4.0002,-6.2295 -1.34489,-3.41214 -1.65063,-8.14112 -4.71406,-9.37518 3.66694,-4.150179 3.54609,-8.980145 1.34126,-11.696664 2.7186,-3.603902 0.52115,-4.088129 0.0877,-5.691313 9.06309,-2.206896 5.70402,-3.922451 9.6696,-6.671883 1.24762,0.346365 2.35361,0.260763 3.15375,-0.754594 6.8217,6.609425 9.99852,3.220285 13.83132,1.630452 1.45497,-1.15405 3.25751,-2.861449 5.83067,-5.796001 l 1.95746,-1.624335 c 3.39157,0.232617 2.85742,-0.560889 1.47249,-1.57627 0.43675,-0.725475 0.82207,-2.318414 3.44977,-1.458112 0.89096,0.652797 1.36893,1.886141 2.86082,1.694499 0.97594,-3.153559 1.9459,-0.382762 2.48303,0.117131 6.30757,1.78055 5.49754,-6.079646 -2.45324,-6.776408 1.52859,-0.283669 1.91447,-2.848193 0.26497,-3.232307 3.31872,-0.237382 5.7254,-3.036918 8.28796,-5.398822 2.85625,-0.40823 4.37037,-1.155164 3.11313,-2.600899 l -26.29407,0.364553 c -1.76412,1.645936 0.83758,2.047408 2.52419,2.709548 0.90556,4.359041 8.09409,4.390008 8.72605,5.170331 -1.88703,1.487397 -0.89198,1.922871 0.10859,3.02651 -2.24051,0.551853 -2.76957,1.103399 -3.66019,1.655088 -1.30992,4.293785 -5.57234,1.186346 -5.93193,5.556533 -4.04098,-2.112522 -11.22418,-1.273632 -4.3333,0.945785 2.68192,7.775403 -12.66722,6.446617 -10.88784,1.228364 2.46247,-4.743107 -1.95509,-3.06222 -6.24519,-3.45551 l -5.81721,0.115721 -13.40213,-9.5e-5 -5.81723,-0.115721 c -4.29008,0.393622 -8.70761,-1.287622 -6.24515,3.455487 1.77948,5.218229 -13.5698,6.547062 -10.88781,-1.228365 6.89083,-2.219511 -0.29222,-3.058283 -4.33335,-0.945856 -0.36012,-4.370092 -4.622054,-1.262653 -5.931948,-5.556438 -0.891049,-0.551878 -1.41969,-1.103447 -3.660127,-1.655113 1.00119,-1.103637 1.995749,-1.539088 0.108587,-3.026485 0.631892,-0.780038 7.820648,-0.810959 8.726008,-5.170331 1.68692,-0.661879 4.28828,-1.063635 2.52433,-2.709548 L 76.001102,53.401184 c -1.257197,1.445735 0.257373,2.192504 3.113293,2.600899 2.562517,2.361904 4.969187,5.161795 8.287832,5.398822 -1.649708,0.383641 -1.263799,2.948118 0.264924,3.232214 -7.950765,0.697328 -8.760798,8.556981 -2.453254,6.776501 0.536724,-0.50002 1.507092,-3.27103 2.483026,-0.117131 1.491918,0.191594 1.969602,-1.041892 2.860824,-1.694499 2.627583,-0.860019 3.013277,0.732779 3.44977,1.458112 -1.384985,1.015807 -1.919019,1.8091 1.472516,1.57627 l 1.957463,1.624335 c 2.573134,2.934552 4.375714,4.641951 5.830714,5.796001 3.83275,1.589833 7.00962,4.978973 13.83126,-1.630405 0.79982,1.015736 1.90613,1.100555 3.15374,0.754617 3.96577,2.749362 0.60665,4.464917 9.66959,6.671813 -0.43478,1.603184 -2.63202,2.087482 0.0877,5.691313 -2.20487,2.716519 -2.32574,7.546485 1.34129,11.696664 -3.06347,1.23418 -3.3692,5.96304 -4.71412,9.37518 1.19786,2.39434 -0.76767,5.79614 4.00019,6.2295 1.22909,2.04013 3.7313,3.9719 0.29707,6.40909 l 0.0585,1.72762 h -1.60647 c 0,0 -1.54695,-0.78003 -1.66579,-1.00316 -1.62723,0.71916 -9.63515,-3.5483 -12.13747,-4.40273 -2.53896,0.005 -8.08362,-4.49984 -18.920077,10.47742 -3.73762,1.17863 -5.03224,2.62918 -3.838398,4.85813 -1.93041,1.44939 -3.468625,2.32857 -6.075973,2.95014 -6.76794,1.61346 -15.703744,1.99848 -17.930202,-12.82406 -0.01899,-2.03189 -0.03035,-3.8229 1.506459,-3.98272 m 0,0 c 4.388137,-10.44443 9.279012,-4.97364 13.884094,-7.28897 l -0.04027,-4.50945 -13.834014,0.37003 1.430347,-1.33981 c 4.611985,-1.04208 3.183652,-5.59364 1.885968,-7.23761 -0.470723,-2.86361 -1.459285,-5.533175 1.296964,-9.605796 l 1.514528,-1.734028 V 90.36565 L 65.31451,90.48373 54.922988,90.36565 v 1.339836 l 1.514528,1.734028 c 2.756277,4.072621 1.767442,6.742186 1.296993,9.605796 -1.297583,1.64397 -2.725888,6.19553 1.885939,7.23761 l 1.430448,1.33981 -13.834086,-0.37003 -0.119518,5.14321 c 4.60511,2.31533 9.322835,-3.7103 13.710886,6.73403 l -0.654228,1.39331 c -3.609515,3.42458 -2.440339,5.15449 0.710463,5.96474 0.464927,0.11908 0.41059,0.97225 0.87356,1.25588 3.990895,4.88362 4.307567,9.08573 8.984158,11.47622 9.95352,5.08803 20.746556,5.69075 29.889139,-5.24979 3.73772,1.224 3.29444,-0.37183 3.19738,-1.73393 -1.07442,-3.35741 2.85705,-10.27922 8.60222,-9.60667 3.7762,0.44187 7.48259,0.54007 8.98343,6.69047 0.33387,3.9782 1.53856,3.88044 3.61803,-0.31546 1.44825,-0.94524 3.16248,-1.492 3.87055,-3.54671 0.83272,0.34092 2.18758,0.27911 2.18758,0.27911 -0.0873,2.20188 0.38242,2.33081 0.92595,2.4799 -0.15057,1.29618 1.35114,2.51082 -1.5145,3.94073 -0.61341,0.66549 -1.77133,0.96741 -1.37512,2.30878 -1.48131,0.76368 -2.03719,2.61282 -2.89996,4.39059 -1.07228,0.5982 -3.4505,1.13839 -2.31222,3.03319 -0.15604,11.22191 2.46395,20.21996 3.35152,23.85803 -10.18782,-15.98452 -68.279967,0.47368 -79.117474,21.52755 -9.712009,-3.47919 -17.543792,-56.85791 -9.793831,-58.37829"
       id="path4507-0"
       inkscape:connector-curvature="0"
       sodipodi:nodetypes="cssssccccsssscccccccccccccccccssssccccsssscccccccccccccccccccccccscsccsccccccccccsccccccccccccccccccccccccccccccccccccccccccccccccccccccccccccccccccccccscccccccccccsccscsccccccccccccccccccccccc"
       inkscape:export-filename="C:\Users\srdcp\Dropbox\Saulo\ProjetoDoutorado\Apps\_SVGs_Artigo\candelabro.png"
       inkscape:export-xdpi="104"
       inkscape:export-ydpi="104" />
  </g>
</svg>
