<?xml version="1.0" encoding="UTF-8" standalone="no"?>
<!-- Created with Inkscape (http://www.inkscape.org/) -->

<svg
   xmlns:dc="http://purl.org/dc/elements/1.1/"
   xmlns:cc="http://creativecommons.org/ns#"
   xmlns:rdf="http://www.w3.org/1999/02/22-rdf-syntax-ns#"
   xmlns:svg="http://www.w3.org/2000/svg"
   xmlns="http://www.w3.org/2000/svg"
   xmlns:sodipodi="http://sodipodi.sourceforge.net/DTD/sodipodi-0.dtd"
   xmlns:inkscape="http://www.inkscape.org/namespaces/inkscape"
   width="1000"
   height="1000"
   viewBox="0 0 264.58333 264.58334"
   version="1.1"
   id="svg4490"
   inkscape:version="0.92.3 (2405546, 2018-03-11)"
   sodipodi:docname="coelho.svg">
  <defs
     id="defs4484" />
  <sodipodi:namedview
     id="base"
     pagecolor="#ffffff"
     bordercolor="#666666"
     borderopacity="1.0"
     inkscape:pageopacity="0.0"
     inkscape:pageshadow="2"
     inkscape:zoom="2.8"
     inkscape:cx="220.15495"
     inkscape:cy="201.00928"
     inkscape:document-units="mm"
     inkscape:current-layer="layer1"
     showgrid="false"
     units="px"
     inkscape:window-width="2560"
     inkscape:window-height="1057"
     inkscape:window-x="-8"
     inkscape:window-y="-8"
     inkscape:window-maximized="1" />
  <metadata
     id="metadata4487">
    <rdf:RDF>
      <cc:Work
         rdf:about="">
        <dc:format>image/svg+xml</dc:format>
        <dc:type
           rdf:resource="http://purl.org/dc/dcmitype/StillImage" />
        <dc:title />
      </cc:Work>
    </rdf:RDF>
  </metadata>
  <g
     inkscape:label="Camada 1"
     inkscape:groupmode="layer"
     id="layer1"
     transform="translate(0,-32.41665)"
     style="display:inline">
    <path
       style="display:inline;fill:none;stroke:#000000;stroke-width:0.69999999;stroke-linecap:butt;stroke-linejoin:miter;stroke-miterlimit:4;stroke-dasharray:none;stroke-opacity:1"
       d="m 82.20306,48.602307 c -2.02123,-5.721007 5.122503,-4.494998 7.363099,1.636241 4.116842,9.050249 14.590521,27.458529 2.760751,49.233637 -6.705315,16.262955 -11.043069,19.823695 -11.075527,33.474975"
       id="path4510-5"
       inkscape:connector-curvature="0"
       sodipodi:nodetypes="cccc"
       inkscape:export-xdpi="104"
       inkscape:export-ydpi="104" />
    <g
       transform="matrix(4.17855,0,0,4.17855,-240.70063,-21.019349)"
       inkscape:label="Camada 2"
       id="layer2-5"
       style="fill:none;fill-opacity:1;stroke:#000000;stroke-width:0.16752223;stroke-miterlimit:4;stroke-dasharray:none;stroke-opacity:1"
       inkscape:export-xdpi="104"
       inkscape:export-ydpi="104">
      <path
         sodipodi:nodetypes="csscsccccsscsssc"
         inkscape:connector-curvature="0"
         id="path30"
         d="m 68.018702,66.387043 c -0.532308,-0.308162 -1.457699,-0.838599 -1.923857,-1.484857 -0.315614,-0.437551 -0.599345,-0.960944 -0.828549,-1.581483 -0.247845,-0.671008 -0.431935,-1.455608 -0.523639,-2.368092 -0.02158,-0.362366 -0.01411,-0.709167 0.01888,-1.042275 0.488019,-4.928876 6.561129,-6.8597 6.748685,-11.852691 -0.901904,-0.503229 -3.920497,-6.222095 1.309734,-9.592146 m 2.470657,-1.13388 c 0.369372,-0.121331 0.753699,-0.257058 1.168636,-0.363324 0.190242,-0.04764 0.387166,-0.08813 0.589491,-0.12142 4.712663,-0.775463 12.355567,2.354274 6.739635,10.034619 -1.209372,1.653937 -3.484929,2.666498 -4.473021,2.679881 -0.795773,1.666373 1.696894,3.590008 1.854585,6.424544 0.185549,3.335291 -0.0021,6.743907 -5.760742,8.952126 -0.221626,0.08499 -0.451386,0.168074 -0.689566,0.249185 -0.22067,0.07515 -0.721257,0.200848 -0.956611,0.272535"
         style="fill:none;fill-opacity:1;stroke:#000000;stroke-width:0.16752224;stroke-linecap:butt;stroke-linejoin:miter;stroke-miterlimit:4;stroke-dasharray:none;stroke-opacity:1" />
    </g>
    <g
       transform="matrix(3.0798299,0,0,3.0798299,-110.21466,-109.23499)"
       inkscape:label="Camada 2"
       id="layer2-03"
       style="fill:none;fill-opacity:1;stroke:#000000;stroke-width:0.22728528;stroke-miterlimit:4;stroke-dasharray:none;stroke-opacity:1"
       inkscape:export-xdpi="104"
       inkscape:export-ydpi="104">
      <g
         id="layer2-0"
         inkscape:label="Camada 2"
         transform="matrix(0.40159552,0,0,0.40159552,21.606323,21.874591)"
         style="fill:none;fill-opacity:1;stroke:#000000;stroke-width:0.56595571;stroke-miterlimit:4;stroke-dasharray:none;stroke-opacity:1">
        <path
           style="fill:none;fill-opacity:1;stroke:#000000;stroke-width:0.5659557;stroke-linecap:butt;stroke-linejoin:miter;stroke-miterlimit:4;stroke-dasharray:none;stroke-opacity:1"
           d="m 96.321598,146.4584 -1.260586,-3.48371 c 0.02624,-11.03717 3.519865,-16.87663 8.941168,-30.02531 9.56446,-17.605358 1.09641,-32.488599 -2.23209,-39.805798 -1.81154,-4.957157 -7.587307,-5.948395 -5.953126,-1.322914 8.260766,13.253465 -6.361828,27.770496 -10.583333,42.711312 -3.362549,6.9597 -3.096289,24.92712 1.480533,32.2734 l 0.920286,4.48024"
           id="path4510"
           inkscape:connector-curvature="0"
           sodipodi:nodetypes="cccccccc" />
      </g>
    </g>
    <g
       id="layer1-3"
       inkscape:label="Camada 1"
       transform="matrix(1.1547884,0,0,1.2159935,-45.676967,-48.562538)"
       style="stroke:#000000;stroke-width:0.59071936;stroke-miterlimit:4;stroke-dasharray:none;stroke-opacity:1;fill:none"
       inkscape:export-xdpi="104"
       inkscape:export-ydpi="104">
      <g
         id="layer2"
         inkscape:label="Camada 2"
         transform="translate(7.960787,8.8751578)"
         style="stroke:#000000;stroke-width:0.59071936;stroke-miterlimit:4;stroke-dasharray:none;stroke-opacity:1;fill:none">
        <path
           style="fill:none;stroke:#000000;stroke-width:0.59071936;stroke-linecap:butt;stroke-linejoin:miter;stroke-miterlimit:4;stroke-dasharray:none;stroke-opacity:1"
           d="m 78.987119,193.00007 c -2.176989,0.85067 -5.689949,8.46232 -0.810784,13.32872 5.009743,4.10408 14.594381,-1.98389 16.704345,-8.55262 3.623974,-0.067 7.43745,-0.78376 12.2944,-5.07812 2.43099,-4.59451 -2.83909,-7.38804 -5.47903,-7.01583 -6.883549,0.83533 -11.557379,5.05868 -16.236619,9.2208 0.356359,-1.05066 0.645901,-1.92224 1.00226,-3.60814"
           id="path4516"
           inkscape:connector-curvature="0"
           sodipodi:nodetypes="ccccccc" />
      </g>
    </g>
    <g
       transform="matrix(3.1217077,0,0,3.1217077,-109.33956,-107.44445)"
       inkscape:label="Camada 2"
       id="layer2-7"
       style="stroke:#000000;stroke-width:0.22423624;stroke-miterlimit:4;stroke-dasharray:none;stroke-opacity:1;fill:none"
       inkscape:export-xdpi="104"
       inkscape:export-ydpi="104">
      <g
         id="layer2-5-1"
         inkscape:label="Camada 2"
         transform="matrix(0.40159552,0,0,0.40159552,20.173147,19.605351)"
         style="stroke:#000000;stroke-width:0.5583634;stroke-miterlimit:4;stroke-dasharray:none;stroke-opacity:1;fill:none">
        <path
           style="fill:none;stroke:#000000;stroke-width:0.55836338;stroke-linecap:butt;stroke-linejoin:miter;stroke-miterlimit:4;stroke-dasharray:none;stroke-opacity:1"
           d="m 91.832693,230.86055 c -0.0417,2.03528 -0.267777,4.75547 -0.989589,7.44083 -1.484536,5.52291 -3.648606,10.98253 -0.295952,10.59599 3.706719,-0.63142 6.583665,-1.37752 9.616538,-2.16822 2.40859,0.82132 3.10719,2.90443 2.61211,5.03181 -0.40065,1.72162 -1.58305,3.47224 -3.273571,4.60658 -6.568076,2.52336 -14.384013,2.38704 -21.639137,3.30729 -6.041784,-0.54311 -3.692595,-5.25235 -1.322918,-7.9375 -0.859596,-2.4828 -4.010957,-5.0412 -4.843276,-10.34526 -0.50063,-3.19033 -0.162257,-7.374 2.018488,-13.13205"
           id="path4514"
           inkscape:connector-curvature="0"
           sodipodi:nodetypes="csccscccsc" />
      </g>
    </g>
    <g
       transform="matrix(3.2704504,0,0,3.1299962,-119.34317,-110.71822)"
       inkscape:label="Camada 2"
       id="layer2-8"
       style="stroke:#000000;stroke-width:0.21878742;stroke-miterlimit:4;stroke-dasharray:none;stroke-opacity:1;fill:none"
       inkscape:export-xdpi="104"
       inkscape:export-ydpi="104">
      <g
         id="layer2-4"
         inkscape:label="Camada 2"
         transform="matrix(0.40159552,0,0,0.40159552,21.599904,20.586851)"
         style="stroke:#000000;stroke-width:0.54479548;stroke-miterlimit:4;stroke-dasharray:none;stroke-opacity:1;fill:none">
        <path
           style="fill:none;stroke:#000000;stroke-width:0.54479545;stroke-linecap:butt;stroke-linejoin:miter;stroke-miterlimit:4;stroke-dasharray:none;stroke-opacity:1"
           d="m 59.852712,219.25385 c -4.18159,1.34839 -4.313769,-4.64062 -11.402005,-3.23989 -3.773631,1.54015 -4.193541,5.81892 -2.998675,10.22781 5.616641,8.25691 13.574311,4.85872 16.00656,4.34898"
           id="path4512"
           inkscape:connector-curvature="0"
           sodipodi:nodetypes="cccc" />
      </g>
    </g>
    <path
       style="fill:none;stroke:#000000;stroke-width:0.69999999;stroke-linecap:butt;stroke-linejoin:miter;stroke-miterlimit:4;stroke-dasharray:none;stroke-opacity:1"
       d="m 71.519084,251.36875 c -2.356002,5.28012 -2.432873,11.24922 0.960673,10.03083 1.954536,-0.70174 4.085567,-1.02208 7.406854,-2.08453 8.466016,-1.1508 10.56086,6.8532 2.594801,10.06628"
       id="path8484"
       inkscape:connector-curvature="0"
       sodipodi:nodetypes="cscc"
       inkscape:export-xdpi="104"
       inkscape:export-ydpi="104" />
  </g>
</svg>
