<?xml version="1.0" encoding="UTF-8" standalone="no"?>
<!-- Created with Inkscape (http://www.inkscape.org/) -->

<svg
   xmlns:dc="http://purl.org/dc/elements/1.1/"
   xmlns:cc="http://creativecommons.org/ns#"
   xmlns:rdf="http://www.w3.org/1999/02/22-rdf-syntax-ns#"
   xmlns:svg="http://www.w3.org/2000/svg"
   xmlns="http://www.w3.org/2000/svg"
   xmlns:sodipodi="http://sodipodi.sourceforge.net/DTD/sodipodi-0.dtd"
   xmlns:inkscape="http://www.inkscape.org/namespaces/inkscape"
   width="1000"
   height="1000"
   viewBox="0 0 264.58333 264.58333"
   version="1.1"
   id="svg892"
   inkscape:version="0.92.3 (2405546, 2018-03-11)"
   sodipodi:docname="dino.svg"
   inkscape:export-filename="C:\Users\srdcp\Dropbox\Saulo\ProjetoDoutorado\Apps\_SVGs_Artigo\dino\dino.png"
   inkscape:export-xdpi="95.999992"
   inkscape:export-ydpi="95.999992">
  <defs
     id="defs886" />
  <sodipodi:namedview
     id="base"
     pagecolor="#ffffff"
     bordercolor="#666666"
     borderopacity="1.0"
     inkscape:pageopacity="0.0"
     inkscape:pageshadow="2"
     inkscape:zoom="1.979904"
     inkscape:cx="304.80097"
     inkscape:cy="560.03653"
     inkscape:document-units="mm"
     inkscape:current-layer="layer1"
     showgrid="false"
     units="px"
     inkscape:window-width="2560"
     inkscape:window-height="1057"
     inkscape:window-x="-8"
     inkscape:window-y="-8"
     inkscape:window-maximized="1" />
  <metadata
     id="metadata889">
    <rdf:RDF>
      <cc:Work
         rdf:about="">
        <dc:format>image/svg+xml</dc:format>
        <dc:type
           rdf:resource="http://purl.org/dc/dcmitype/StillImage" />
        <dc:title />
      </cc:Work>
    </rdf:RDF>
  </metadata>
  <g
     inkscape:label="Camada 1"
     inkscape:groupmode="layer"
     id="layer1"
     transform="translate(0,-32.416684)">
    <path
       style="fill:none;stroke:#000000;stroke-width:1.15100002;stroke-linecap:butt;stroke-linejoin:miter;stroke-miterlimit:4;stroke-dasharray:none;stroke-opacity:1"
       d="m 52.642505,177.63176 c -3.249877,-1.78938 -5.994852,-3.53327 -8.323417,-5.24811 -19.721755,-14.52378 -9.573489,-26.96329 -23.31703,-47.30045 -5.237979,-1.47312 -12.0608081,5.97688 -15.2902501,-1.47162 -0.7498596,-5.14136 2.1179956,-8.46101 10.4466711,-14.2705 3.765192,-2.62608 1.172447,-5.07516 23.678077,-24.3283 33.041609,-23.683844 49.608089,-14.010254 51.541798,-12.338298 4.320447,3.913813 0.874161,10.499536 -4.961796,10.527087 -6.718161,-4.742464 -4.324469,-6.833982 -19.037336,-1.92442 -23.512087,10.1231 -22.081768,19.681081 -19.644398,23.431081 2.875924,4.55199 3.514861,10.0599 -2.733661,18.51194 8.319133,43.67067 28.655254,-35.306989 82.771817,-36.178159 39.32308,1.199091 50.99474,47.871399 111.85066,70.074929 9.38056,8.52271 21.90174,-0.1102 20.45453,11.09309 -0.77558,1.98551 -1.62911,3.0681 -3.41655,2.51977 -11.894,-3.64969 -22.75821,1.65129 -48.22839,-3.63142 -23.3634,-4.84518 -54.93797,-9.51725 -64.90632,-3.07618 -7.65716,42.18506 20.63536,24.00548 17.51807,73.68877 3.30376,8.85122 2.39503,26.10109 -5.46786,27.16691 -8.07643,-2.99862 -1.44399,-5.77593 -2.34254,-22.61971 -4.84204,-35.23692 -16.5563,-29.99613 -32.49079,-53.89898 -0.24862,10.3379 -0.63975,20.33642 7.39193,27.95801 2.74598,13.94318 -2.5156,21.22816 -4.75981,31.12845 -0.8546,5.46319 -8.14554,11.95428 -9.9228,18.79035 -4.01047,2.72251 -11.11575,1.13141 -9.92413,-4.07463 2.02721,-3.25976 4.80374,-5.05451 5.8732,-10.18808 13.55153,-14.26023 7.9197,-26.37601 0.2028,-38.25911 -11.644568,-12.14993 -15.52859,-20.43764 -18.02436,-28.97772 -6.503567,4.18364 -12.547694,4.25701 -15.273321,3.91471 -0.724136,7.9228 1.135638,13.86331 1.502123,28.68513 -8.793594,13.89557 -6.375516,16.64173 -3.645603,22.63838 -0.789772,10.72205 -4.80561,4.96796 -6.379266,3.28343 m -2.681957,-40.61273 c -7.618847,8.55984 -9.678202,9.84485 -10.583174,16.16224 0.338359,7.12866 1.279228,14.6071 -1.924062,14.37561 -3.310458,0.65705 -4.171496,-7.03523 -4.354199,-11.88518 5.534569,-12.67791 6.679042,-23.23048 9.578007,-34.09692 m 9.965385,56.05698 c -10.993329,-21.53151 2.7835,-10.33434 -2.681957,-40.61273 -2.820463,-5.25501 -3.560942,-10.1546 -7.283428,-15.44425 -2.403883,-2.60962 -4.179531,-5.95802 -5.176663,-9.56937 -1.321824,-4.78679 -1.275208,-10.03565 0.490531,-14.63795"
       id="path23"
       inkscape:connector-curvature="0"
       sodipodi:nodetypes="csccscccccccccssccccccccccccccccccccccccsc" />
    <path
       style="fill:none;stroke:#000000;stroke-width:1.13299155;stroke-linecap:butt;stroke-linejoin:miter;stroke-miterlimit:4;stroke-dasharray:none;stroke-opacity:1"
       d="m 21.002058,125.0832 c 8.174177,-0.48246 21.260884,2.94022 23.999105,-1.86303"
       id="path830"
       inkscape:connector-curvature="0"
       sodipodi:nodetypes="cc" />
    <path
       style="fill:none;stroke:#000000;stroke-width:1.13299155;stroke-linecap:butt;stroke-linejoin:miter;stroke-miterlimit:4;stroke-dasharray:none;stroke-opacity:1"
       d="m 35.963244,108.66996 c -0.527767,2.49432 -4.797848,3.33913 -4.885714,0.31145 0.40828,-2.58475 4.331695,-4.26958 4.885714,-0.31145"
       id="path832"
       inkscape:connector-curvature="0"
       sodipodi:nodetypes="ccc" />
    <path
       style="fill:none;stroke:#000000;stroke-width:1.13299155;stroke-linecap:butt;stroke-linejoin:miter;stroke-miterlimit:4;stroke-dasharray:none;stroke-opacity:1"
       d="M 104.5738,120.33833 C 90.090553,143.4379 90.406681,165.01166 91.58062,184.73646"
       id="path846"
       inkscape:connector-curvature="0"
       sodipodi:nodetypes="cc" />
    <path
       style="fill:none;stroke:#000000;stroke-width:1.00977814;stroke-linecap:butt;stroke-linejoin:miter;stroke-miterlimit:4;stroke-dasharray:none;stroke-opacity:1"
       d="m 120.74379,188.35919 c 0.75628,-11.96186 -2.30128,-18.67036 7.69546,-22.52578 l 4.95965,-20.91432"
       id="path833"
       inkscape:connector-curvature="0"
       sodipodi:nodetypes="ccc" />
    <path
       style="fill:none;stroke:#000000;stroke-width:0.9814533;stroke-linecap:butt;stroke-linejoin:miter;stroke-miterlimit:4;stroke-dasharray:none;stroke-opacity:1"
       d="m 128.43925,165.83341 15.08766,-1.81121"
       id="path835"
       inkscape:connector-curvature="0"
       sodipodi:nodetypes="cc" />
    <path
       style="fill:none;stroke:#000000;stroke-width:1.15100002;stroke-linecap:butt;stroke-linejoin:miter;stroke-miterlimit:4;stroke-dasharray:none;stroke-opacity:1"
       d="m 76.307299,188.65117 c 0.13784,-1.55117 0.382588,-2.27052 0.327178,-3.29558"
       id="path4488"
       inkscape:connector-curvature="0"
       sodipodi:nodetypes="cc" />
  </g>
</svg>
