<?xml version="1.0" encoding="UTF-8" standalone="no"?>
<!-- Created with Inkscape (http://www.inkscape.org/) -->

<svg
   xmlns:dc="http://purl.org/dc/elements/1.1/"
   xmlns:cc="http://creativecommons.org/ns#"
   xmlns:rdf="http://www.w3.org/1999/02/22-rdf-syntax-ns#"
   xmlns:svg="http://www.w3.org/2000/svg"
   xmlns="http://www.w3.org/2000/svg"
   xmlns:sodipodi="http://sodipodi.sourceforge.net/DTD/sodipodi-0.dtd"
   xmlns:inkscape="http://www.inkscape.org/namespaces/inkscape"
   width="1000"
   height="1000"
   viewBox="0 0 264.58333 264.58333"
   version="1.1"
   id="svg4510"
   inkscape:version="0.92.3 (2405546, 2018-03-11)"
   sodipodi:docname="elefante.svg"
   inkscape:export-filename="C:\Users\srdcp\Dropbox\ProjetoDoutorado\ProjetoDoutorado\Apps\_SVGs_Artigo\elefante\elefante_prova_de classificação2.png"
   inkscape:export-xdpi="104"
   inkscape:export-ydpi="104">
  <defs
     id="defs4504" />
  <sodipodi:namedview
     id="base"
     pagecolor="#ffffff"
     bordercolor="#666666"
     borderopacity="1.0"
     inkscape:pageopacity="0.0"
     inkscape:pageshadow="2"
     inkscape:zoom="0.9899495"
     inkscape:cx="333.28585"
     inkscape:cy="469.3084"
     inkscape:document-units="px"
     inkscape:current-layer="layer2"
     showgrid="false"
     inkscape:window-width="2560"
     inkscape:window-height="1017"
     inkscape:window-x="-8"
     inkscape:window-y="-8"
     inkscape:window-maximized="1"
     units="px"
     inkscape:lockguides="false"
     showguides="true"
     scale-x="1">
    <inkscape:grid
       type="xygrid"
       id="grid4532" />
  </sodipodi:namedview>
  <metadata
     id="metadata4507">
    <rdf:RDF>
      <cc:Work
         rdf:about="">
        <dc:format>image/svg+xml</dc:format>
        <dc:type
           rdf:resource="http://purl.org/dc/dcmitype/StillImage" />
        <dc:title />
      </cc:Work>
    </rdf:RDF>
  </metadata>
  <g
     inkscape:groupmode="layer"
     id="layer2"
     inkscape:label="Camada 2"
     transform="translate(0,-735.41668)">
    <path
       style="fill:none;fill-opacity:1;stroke:#000007;stroke-width:0.13282083;stroke-linecap:butt;stroke-linejoin:miter;stroke-miterlimit:4;stroke-dasharray:none;stroke-opacity:1"
       d="m 123.51531,848.31097 c 0.72525,14.6248 -4.80361,15.69355 -5.40147,20.57522 -0.48665,5.99712 -2.44297,10.01685 -3.30065,15.55539 0.49552,6.46972 3.46314,6.64013 3.89288,10.73507"
       id="path5073"
       inkscape:connector-curvature="0"
       sodipodi:nodetypes="cccc"
       inkscape:export-xdpi="104"
       inkscape:export-ydpi="104"
       inkscape:export-filename="C:\Users\srdcp\Downloads\testes_novocode\elefante.png" />
    <path
       style="fill:none;stroke:#000007;stroke-width:0.13282083;stroke-linecap:butt;stroke-linejoin:miter;stroke-miterlimit:4;stroke-dasharray:none;stroke-opacity:1"
       d="m 228.28646,836.62308 c 2.02557,-1.30689 3.9309,0.87031 5.27978,1.72684 1.79276,1.13835 2.60259,2.89444 1.79755,3.87048 -1.36533,1.23345 -3.52608,0.71836 -5.22384,-0.3814 -1.9974,-1.29385 -3.18694,-4.19878 -1.85349,-5.21592"
       id="path5083"
       inkscape:connector-curvature="0"
       sodipodi:nodetypes="cscsc"
       inkscape:export-xdpi="104"
       inkscape:export-ydpi="104"
       inkscape:export-filename="C:\Users\srdcp\Downloads\testes_novocode\elefante.png" />
    <path
       style="fill:none;stroke:#000007;stroke-width:0.13282083;stroke-linecap:butt;stroke-linejoin:miter;stroke-miterlimit:4;stroke-dasharray:none;stroke-opacity:1"
       d="m 168.14354,854.23097 c -5.32101,7.55659 -3.64929,11.33973 -5.69872,18.17785 -0.43155,2.5816 -7.08485,6.81426 -8.68194,11.76038 -2.47124,2.32035 -2.8854,3.89407 -3.40155,5.90173 0.7921,-0.092 1.78621,-0.21113 2.89446,-0.35861 4.09874,-0.54544 9.75858,-1.47883 12.53397,-2.86394 7.01197,-2.16748 9.6598,-4.5558 13.53371,-6.88208 1.13513,-1.12804 2.36302,-3.87117 2.36302,-3.87117 0.57285,-1.73135 1.14571,-1.78056 1.71856,-2.15065 2.01668,-0.69582 5.33382,1.16691 6.76685,-1.72051 2.54292,-1.7524 3.49188,-5.95439 5.90757,-5.91429 3.95732,-0.15357 3.79817,5.68375 7.51871,4.62389 2.32336,1.41803 3.97729,1.66325 5.1557,1.07533 2.67193,1.56883 4.71638,0.22871 7.08907,-0.86026 3.20925,3.20353 3.70649,2.50568 4.3525,5.99434 0.4871,1.76457 0.98628,2.32777 2.84399,1.96306 2.13939,-0.10201 2.15928,0.94742 2.04079,2.25819 1.18323,5.40393 0.0716,13.5066 1.28893,16.99012 3.40892,10.05863 5.77177,15.10011 7.94836,19.2483 6.02899,17.94451 3.78502,18.96419 3.65194,24.30232 -0.23009,2.65905 -0.0674,6.30127 -0.80558,7.68858 -3.9767,2.11237 -5.9865,-2.47109 -7.89465,-1.50547 -3.935,2.5062 -0.2457,4.11036 0.10742,6.50573 1.18168,2.23705 2.47242,3.45168 3.32971,4.62389 4.92547,2.5244 4.76185,-0.84234 6.65944,-0.59144 4.66833,0.99961 6.34615,-6.21 7.51872,-10.10804 3.82433,-17.37828 -0.56697,-28.95135 -1.82598,-35.86207 -1.23167,-13.03629 -0.34468,-23.54041 0.64446,-30.75427 0.67136,-19.55851 -3.8145,-20.70151 -4.77976,-26.66803 -1.61501,-8.83061 0.59896,-14.17668 -0.80557,-20.43117 0.15484,-2.23107 -2.32849,-3.61034 -3.2223,-5.05402 -0.72609,-4.73479 -0.89202,-11.48838 -2.25563,-13.92545 -3.94502,-3.61877 -7.49809,-14.69966 -8.48541,-15.21584 -11.18752,-7.71369 -19.28388,-4.90546 -27.71184,-3.22597 -15.05696,3.43339 -35.20452,-4.62233 -57.5719,-5.37663 -19.33919,0.16968 -22.69924,2.08035 -32.95109,3.88686 -14.996535,2.64261 -34.486788,0.33467 -52.33265,7.29651 -11.562355,3.55313 -20.051826,9.49437 -27.60443,16.77506 -4.214874,4.77203 -8.650961,9.27832 -11.4929,15.69974 -2.939443,8.16377 -1.738259,14.53557 -2.900073,21.93662 1.719064,6.23332 2.290122,11.74364 4.691244,15.22205 0.235083,0.34056 0.875035,0.79877 1.209805,1.00921 1.477885,0.92903 3.327765,1.35289 4.915253,2.0797 m 125.955581,14.16041 c -0.61508,5.04169 -2.25274,10.00997 -6.28048,15.87674 -3.54966,10.88451 -7.52467,13.80342 -10.64648,19.77303 -0.96286,3.56329 -0.57503,8.5899 -2.6969,11.77114 -1.72841,2.93135 -3.00228,6.7705 -5.00357,8.35254 -3.09355,8.13435 9.13613,14.89073 -1.10075,17.25774 -12.54446,0.3801 -20.91626,-3.07825 -20.91077,-5.52364 -0.7382,-0.48559 -0.0897,-5.40161 0.32832,-5.29824 2.80883,-6.30788 2.6923,-9.66762 4.53448,-12.15227 8.08493,-9.84496 3.19314,-10.99091 5.67082,-17.12613 0.0116,-9.54597 3.2721,-10.44652 4.50818,-15.88609 0.29212,-1.57301 1.43173,-7.19977 -0.0581,-11.9391 -13.53585,2.72027 -18.881227,2.4521 -29.373354,3.70491 -10.193194,0.74684 -11.841835,0.46537 -26.632146,-2.92532 1.381824,-2.08229 3.057751,-4.15972 7.495764,-13.33664"
       id="path5075"
       inkscape:connector-curvature="0"
       sodipodi:nodetypes="ccccsccccccccccccccccccccccccccccccsccccsscccccccccccccccc"
       inkscape:export-xdpi="104"
       inkscape:export-ydpi="104"
       inkscape:export-filename="C:\Users\srdcp\Downloads\testes_novocode\elefante.png" />
    <path
       style="fill:none;stroke:#000007;stroke-width:0.13282083;stroke-linecap:butt;stroke-linejoin:miter;stroke-miterlimit:4;stroke-dasharray:none;stroke-opacity:1"
       d="m 24.925665,857.98913 c -2.140194,15.59883 -1.524972,13.07814 -0.494859,17.92139 1.768419,4.21983 -0.05945,8.59211 1.204135,16.20061 0.634617,2.12863 1.515481,5.12776 2.955602,10.10392 2.833274,2.49426 4.292373,5.85671 5.683849,9.2619 1.419213,7.84409 -0.770015,18.64229 0.909416,31.30677 -0.562126,5.4444 -0.120179,7.3394 0.0758,10.1039 0.707326,4.5927 10.147024,6.6101 28.116107,3.9038 2.288078,-0.7751 5.018457,-3.0538 1.439907,-6.5829 -2.956278,-1.7663 -5.918164,-4.1931 -6.972191,-10.10388 -1.048348,-1.35995 -2.531523,-10.26546 -2.500891,-13.08914 -3.334524,-3.82723 -1.060985,-13.47184 -1.060985,-13.47184 0.264642,-6.11984 2.387936,-9.50906 4.850219,-12.40024 1.487173,-2.48976 2.563301,-3.87999 3.568796,-5.18718"
       id="path5077"
       inkscape:connector-curvature="0"
       sodipodi:nodetypes="cccccccccccccc"
       inkscape:export-xdpi="104"
       inkscape:export-ydpi="104"
       inkscape:export-filename="C:\Users\srdcp\Downloads\testes_novocode\elefante.png" />
    <path
       style="fill:none;stroke:#000007;stroke-width:0.13282083;stroke-linecap:butt;stroke-linejoin:miter;stroke-miterlimit:4;stroke-dasharray:none;stroke-opacity:1"
       d="m 13.589447,857.59956 c -0.519095,9.53376 1.79179,16.89148 1.777179,24.04343 -1.89962,7.94402 -1.515329,12.23724 -1.798562,20.05692 0.291396,6.2261 -1.500826,8.01581 -2.616861,11.24524 -0.491305,1.84538 -0.785232,4.19694 1.360769,5.96905 1.34513,0.68429 2.409193,-0.009 2.930884,-5.06302 0.655563,-4.43634 1.245983,-9.23277 0.942069,-18.97303 -0.797975,-4.29678 0.808459,-6.55343 1.046741,-11.45843 1.35149,-0.79508 0.165286,-9.18402 1.049025,-10.59811"
       id="path5079"
       inkscape:connector-curvature="0"
       sodipodi:nodetypes="ccccccccc"
       inkscape:export-xdpi="104"
       inkscape:export-ydpi="104"
       inkscape:export-filename="C:\Users\srdcp\Downloads\testes_novocode\elefante.png" />
    <path
       style="fill:none;stroke:#000007;stroke-width:0.13282083;stroke-linecap:butt;stroke-linejoin:miter;stroke-miterlimit:4;stroke-dasharray:none;stroke-opacity:1"
       d="m 153.25579,889.71232 c 1.13059,6.5567 2.35023,10.01626 2.36416,12.68448 -0.90698,4.4494 -1.54766,8.02656 -1.57369,11.21747 0.2846,4.32418 1.38047,5.52242 2.52562,8.12551 0.9856,3.29169 -0.63282,7.69131 -1.89184,10.6377 0.37618,3.75922 -0.14629,6.84444 -0.43611,10.10415 -3.60023,5.56566 -6.11044,8.24108 -3.3484,11.48357 0.97914,0.73623 1.40946,2.40475 11.63423,2.56755 l 11.90625,-0.47247 c 3.22926,-0.14746 4.37945,-6.84277 2.74033,-9.5439 -3.42805,-3.33444 -8.86753,-5.70691 -6.89807,-11.62277 2.06313,-1.97819 4.10915,-5.03104 7.40597,-25.76143 1.87743,-10.91672 3.84352,-21.38374 4.00225,-33.03705"
       id="path4518"
       inkscape:connector-curvature="0"
       sodipodi:nodetypes="ccccccccccccc"
       inkscape:export-xdpi="104"
       inkscape:export-ydpi="104"
       inkscape:export-filename="C:\Users\srdcp\Downloads\testes_novocode\elefante.png" />
    <path
       style="fill:none;stroke:#000007;stroke-width:0.13282083;stroke-linecap:butt;stroke-linejoin:miter;stroke-miterlimit:4;stroke-dasharray:none;stroke-opacity:1"
       d="m 35.259608,952.88762 c -7.330601,-0.34336 -13.671165,-0.13431 -20.329549,-0.32362 -6.2410092,-2.96858 -3.081003,-10.45164 -3.307291,-15.9695 2.866319,-9.60689 5.303398,-11.65566 8.88244,-17.48139 2.136318,-18.39559 -1.364355,-36.73721 -1.014712,-45.28229"
       id="path4520"
       inkscape:connector-curvature="0"
       sodipodi:nodetypes="ccccc"
       inkscape:export-xdpi="104"
       inkscape:export-ydpi="104"
       inkscape:export-filename="C:\Users\srdcp\Downloads\testes_novocode\elefante.png" />
    <path
       style="fill:none;stroke:#000007;stroke-width:0.13282083;stroke-linecap:butt;stroke-linejoin:miter;stroke-miterlimit:4;stroke-dasharray:none;stroke-opacity:1"
       d="m 208.74573,805.52627 c -8.69163,-4.01302 -18.00677,-2.92887 -26.69524,-0.61191 -10.24218,3.21465 -7.80353,6.52073 -11.85212,18.30432 -0.68837,2.00355 -0.84706,4.35628 -0.64273,7.01947 1.72672,3.47662 6.42772,4.35817 8.59613,7.68619 1.62528,2.49444 5.01589,6.01793 6.97232,7.88226 3.12378,5.36756 2.81338,9.77258 6.74856,7.61718 6.09339,-3.16896 5.94352,-7.46259 7.88445,-11.69304 1.17239,-6.40578 4.39847,-7.34159 8.65941,-13.88827"
       id="path4491"
       inkscape:connector-curvature="0"
       sodipodi:nodetypes="ccscscccc"
       inkscape:export-xdpi="104"
       inkscape:export-ydpi="104"
       inkscape:export-filename="C:\Users\srdcp\Downloads\testes_novocode\elefante.png" />
    <path
       style="fill:none;stroke:#000007;stroke-width:0.13282083;stroke-linecap:butt;stroke-linejoin:miter;stroke-miterlimit:4;stroke-dasharray:none;stroke-opacity:1"
       d="m 205.10249,824.89276 c -3.05132,5.4122 -6.10265,2.85965 -9.15398,16.23662 -1.11453,3.00945 -0.91213,7.57375 -4.14268,8.0849 -1.60358,1.19543 -5.43255,-6.42073 -7.34991,-12.22758 -0.46542,-0.49154 -7.61297,-3.12357 -8.21854,-4.67722 -0.41155,-0.3128 -3.16814,-6.96038 -2.47224,-8.61944 0.13363,-0.53454 1.56694,-5.14752 1.9377,-10.55714 -0.0104,-1.1003 4.49946,-4.74276 5.54585,-4.81086 1.14349,-0.71524 10.20662,-3.71798 14.36573,-3.27405 2.17077,0.23171 10.28989,2.87315 10.28989,2.87315"
       id="path4517"
       inkscape:connector-curvature="0"
       sodipodi:nodetypes="ccccccccsc"
       inkscape:export-xdpi="104"
       inkscape:export-ydpi="104"
       inkscape:export-filename="C:\Users\srdcp\Downloads\testes_novocode\elefante.png" />
  </g>
</svg>
