<?xml version="1.0" encoding="UTF-8" standalone="no"?>
<!-- Created with Inkscape (http://www.inkscape.org/) -->

<svg
   xmlns:dc="http://purl.org/dc/elements/1.1/"
   xmlns:cc="http://creativecommons.org/ns#"
   xmlns:rdf="http://www.w3.org/1999/02/22-rdf-syntax-ns#"
   xmlns:svg="http://www.w3.org/2000/svg"
   xmlns="http://www.w3.org/2000/svg"
   xmlns:sodipodi="http://sodipodi.sourceforge.net/DTD/sodipodi-0.dtd"
   xmlns:inkscape="http://www.inkscape.org/namespaces/inkscape"
   width="300mm"
   height="300mm"
   viewBox="0 0 300 300"
   version="1.1"
   id="svg915"
   sodipodi:docname="gato.svg"
   inkscape:version="0.92.3 (2405546, 2018-03-11)">
  <defs
     id="defs909" />
  <sodipodi:namedview
     id="base"
     pagecolor="#ffffff"
     bordercolor="#666666"
     borderopacity="1.0"
     inkscape:pageopacity="0.0"
     inkscape:pageshadow="2"
     inkscape:zoom="3.959798"
     inkscape:cx="86.214124"
     inkscape:cy="739.26004"
     inkscape:document-units="mm"
     inkscape:current-layer="layer1"
     showgrid="false"
     viewbox-height="300"
     showguides="true"
     inkscape:window-width="1278"
     inkscape:window-height="1008"
     inkscape:window-x="1273"
     inkscape:window-y="0"
     inkscape:window-maximized="0" />
  <metadata
     id="metadata912">
    <rdf:RDF>
      <cc:Work
         rdf:about="">
        <dc:format>image/svg+xml</dc:format>
        <dc:type
           rdf:resource="http://purl.org/dc/dcmitype/StillImage" />
        <dc:title />
      </cc:Work>
    </rdf:RDF>
  </metadata>
  <g
     inkscape:label="Camada 1"
     inkscape:groupmode="layer"
     id="layer1"
     transform="translate(0,3)">
    <path
       style="fill:none;fill-opacity:1;stroke:#ff0000;stroke-width:1.565001;stroke-linecap:butt;stroke-linejoin:miter;stroke-miterlimit:4;stroke-dasharray:none;stroke-opacity:1"
       d="M 217.631,121.107 C 310.686,123.532 219.383,80.3116 238.173,46.3206 241.252,40.7506 247.504,32.9696 253.06,32.5456 262.683,31.8716 264.683,34.0146 250.927,44.0936 225.215,62.9316 274.696,93.5206 273.007,110.592 274.976,123.183 234.572,134.115 234.572,134.115"
       id="path32"
       inkscape:connector-curvature="0"
       sodipodi:nodetypes="cscscc" />
    <path
       style="fill:none;stroke:#f90000;stroke-width:1.26500106;stroke-linecap:butt;stroke-linejoin:miter;stroke-miterlimit:4;stroke-dasharray:none;stroke-opacity:1"
       d="m 234.572,134.115 c 0,0 10.085,7.781 5.738,28.947 5.307,9.126 9.006,22.459 23.377,25.973 5.013,13.855 -13.435,34.031 -26.59,68.71 -6.774,6.671 -14.01,8.762 -29.671,7.803 -6.153,-0.377 -8.983,2.066 -16.82,-2.512 -5.858,-4.346 -1.134,-10.582 -1.134,-10.582 0,0 4.725,-3.213 10.962,-3.402 0.944,-0.567 19.654,-18.332 23.434,-29.483 0.189,-3.212 -0.378,-7.086 -0.378,-7.086 l -36.097,-25.23 -24.757,9.072 c 2.263,34.668 14.758,58.516 0,67.279 -26.482,5.555 -24.414,-5.44 -21.733,-8.882 4.014,-4.861 10.713,-6.365 10.772,-10.017 2.176,-6.649 -11.324,-38.802 -12.292,-41.472 -1.919,0.233 -4.147,0.254 -6.608,0.084 -2.119,6.189 -16.678,43.557 -22.656,58.452 -7.748,6.048 -19.3932,8.166 -30.6382,4.481 -9.215,-2.672 -10.035,-15.557 10.584,-14.93 9.9982,-20.874 23.8122,-42.523 8.693,-58.964 -22.366,-20.758 -20.641,-58.981 -39.561,-68.096 -3.364,-1.62 -5.837,1.201 -21.883,-1.719 -3.665,-0.485 -8.431,-13.057 -9.426,-14.096 -5.826,-5.43 -2.176,-8.191 -3.607,-9.8674 -3.921706,-2.357458 -4.720582,-5.633301 -1.62329,-7.540066 1.791457,-1.102862 4.886341,-1.747713 9.43429,-1.491934 1.577,-0.655 0.714,-19.148 2.41,-21.734 6.102,-7.411 12.12,-11.6 17.315,-13.441 2.353,-0.833 4.536,-1.185 6.483,-1.137 2.797,-4.598 4.023,-7.213 5.542,-11.832 1.636,-4.973 3.499,-11.931 4.733,-16.294 4.39,4.999 9.427,10.782 13.174,30.94 6.579,3.662 13.406,6.422 16.82,24.048 1.159,9.45 -0.605,18.9 -5.859,28.3494 6.542,8.732 13.9842,12.901 18.5992,16.352 l 19.955,0.468 c 0,0 11.65,7.292 17.887,5.591 15.111,-0.574 45.241,-14.44 68.48,-9.749"
       id="path18"
       inkscape:connector-curvature="0"
       sodipodi:nodetypes="ccccsccccccccccccccccscccsccscscccccccc" />
    <path
       style="fill:none;stroke:#fe0000;stroke-width:1.365001;stroke-linecap:butt;stroke-linejoin:miter;stroke-miterlimit:4;stroke-dasharray:none;stroke-opacity:1"
       d="M 217.631,121.107 C 223.211,124.701 228.751,127.864 234.572,134.115"
       id="path837"
       inkscape:connector-curvature="0"
       sodipodi:nodetypes="cc" />
    <path
       style="fill:none;stroke:#ff0000;stroke-width:1.165001;stroke-linecap:butt;stroke-linejoin:miter;stroke-miterlimit:4;stroke-dasharray:none;stroke-opacity:1"
       d="M 240.31,163.062 C 238.721,161.093 235.771,155.353 231.286,145.581"
       id="path839"
       inkscape:connector-curvature="0"
       sodipodi:nodetypes="cc" />
    <path
       style="fill:none;stroke:#ff0000;stroke-width:1.265001;stroke-linecap:butt;stroke-linejoin:miter;stroke-miterlimit:4;stroke-dasharray:none;stroke-opacity:1"
       d="M 207.426,265.548 C 206.145,263.074 202.077,260.246 207.938,254.209 218.029,254.726 229.873,231.659 235.613,212.808 238.71,205.603 213.053,196.58 201.378,187.536 196.133,185.929 190.083,186.854 187.393,187.253"
       id="path841"
       inkscape:connector-curvature="0"
       sodipodi:nodetypes="ccccc" />
    <path
       style="fill:none;stroke:#ff0000;stroke-width:1.265001;stroke-linecap:butt;stroke-linejoin:miter;stroke-miterlimit:4;stroke-dasharray:none;stroke-opacity:1"
       d="M 201.378,187.536 C 178.182,169.741 178.767,158.316 180.495,142.912"
       id="path843"
       inkscape:connector-curvature="0"
       sodipodi:nodetypes="cc" />
    <path
       style="fill:none;stroke:#ff0000;stroke-width:1.165001;stroke-linecap:butt;stroke-linejoin:miter;stroke-miterlimit:4;stroke-dasharray:none;stroke-opacity:1"
       d="M 162.636,196.325 C 153.859,200.151 146.201,202.256 139.383,203.233"
       id="path845"
       inkscape:connector-curvature="0"
       sodipodi:nodetypes="cc" />
    <path
       style="fill:none;stroke:#ff0000;stroke-width:1.465001;stroke-linecap:butt;stroke-linejoin:miter;stroke-miterlimit:4;stroke-dasharray:none;stroke-opacity:1"
       d="M 132.775,203.317 C 139.113,188.539 126.251,196.303 138.618,161.047"
       id="path847"
       inkscape:connector-curvature="0"
       sodipodi:nodetypes="cc" />
    <path
       style="fill:none;stroke:#fc0000;stroke-width:1.165001;stroke-linecap:butt;stroke-linejoin:miter;stroke-miterlimit:4;stroke-dasharray:none;stroke-opacity:1"
       d="M 98.7578,192.356 C 89.3678,170.777 90.2418,161.188 90.1118,151.062"
       id="path849"
       inkscape:connector-curvature="0"
       sodipodi:nodetypes="cc" />
    <path
       style="fill:none;stroke:#ff0000;stroke-width:1.165001;stroke-linecap:butt;stroke-linejoin:miter;stroke-miterlimit:4;stroke-dasharray:none;stroke-opacity:1"
       d="M 81.7488,56.0476 C 82.0648,57.6906 82.0868,59.6726 82.0318,62.0476"
       id="path855"
       inkscape:connector-curvature="0"
       sodipodi:nodetypes="cc" />
    <path
       style="fill:none;stroke:#ff0000;stroke-width:1.26500106;stroke-linecap:butt;stroke-linejoin:miter;stroke-miterlimit:4;stroke-dasharray:none;stroke-opacity:1"
       d="m 24.2808,98.5776 c 0.912,-4.264 3.845,-6.563 7.811,-9.032"
       id="path857"
       inkscape:connector-curvature="0"
       sodipodi:nodetypes="cc" />
    <path
       style="fill:none;stroke:#ff0000;stroke-width:1.46500099;stroke-linecap:butt;stroke-linejoin:miter;stroke-miterlimit:4;stroke-dasharray:none;stroke-opacity:1"
       d="M 53.8268,81.2666 C 52.890636,62.639429 45.673903,66.833419 41.627711,73.803856 c -1.468803,2.530331 -2.519807,5.42653 -2.700911,7.729744 -0.246,6.412 12.217,17.854 14.9,-0.267"
       id="path859"
       inkscape:connector-curvature="0"
       sodipodi:nodetypes="cscc" />
    <path
       style="fill:none;stroke:#ff0000;stroke-width:1.265001;stroke-linecap:butt;stroke-linejoin:miter;stroke-miterlimit:4;stroke-dasharray:none;stroke-opacity:1"
       d="M 58.2998,53.2336 56.3658,58.0806"
       id="path4507"
       inkscape:connector-curvature="0" />
    <path
       style="fill:none;stroke:#fc0000;stroke-width:1.065001;stroke-linecap:butt;stroke-linejoin:miter;stroke-miterlimit:4;stroke-dasharray:none;stroke-opacity:1"
       d="M 51.8168,54.3706 C 52.6528,44.3856 52.2438,34.8146 52.4088,25.0536 57.8998,28.9816 60.9458,35.1236 63.8418,41.4016"
       id="path4513"
       inkscape:connector-curvature="0"
       sodipodi:nodetypes="ccc" />
  </g>
</svg>
