<?xml version="1.0" encoding="UTF-8" standalone="no"?>
<svg
   xmlns:dc="http://purl.org/dc/elements/1.1/"
   xmlns:cc="http://creativecommons.org/ns#"
   xmlns:rdf="http://www.w3.org/1999/02/22-rdf-syntax-ns#"
   xmlns:svg="http://www.w3.org/2000/svg"
   xmlns="http://www.w3.org/2000/svg"
   xmlns:sodipodi="http://sodipodi.sourceforge.net/DTD/sodipodi-0.dtd"
   xmlns:inkscape="http://www.inkscape.org/namespaces/inkscape"
   version="1.0"
   width="980.000000pt"
   height="954.000000pt"
   viewBox="0 0 980.000000 954.000000"
   preserveAspectRatio="xMidYMid meet"
   id="svg10"
   sodipodi:docname="gato_teste_transform.svg"
   inkscape:version="0.92.3 (2405546, 2018-03-11)">
  <metadata
     id="metadata16">
    <rdf:RDF>
      <cc:Work
         rdf:about="">
        <dc:format>image/svg+xml</dc:format>
        <dc:type
           rdf:resource="http://purl.org/dc/dcmitype/StillImage" />
      </cc:Work>
    </rdf:RDF>
  </metadata>
  <defs
     id="defs14" />
  <sodipodi:namedview
     pagecolor="#ffffff"
     bordercolor="#666666"
     borderopacity="1"
     objecttolerance="10"
     gridtolerance="10"
     guidetolerance="10"
     inkscape:pageopacity="0"
     inkscape:pageshadow="2"
     inkscape:window-width="1366"
     inkscape:window-height="705"
     id="namedview12"
     showgrid="false"
     inkscape:zoom="4.1981686"
     inkscape:cx="66.787631"
     inkscape:cy="921.07778"
     inkscape:window-x="-8"
     inkscape:window-y="-8"
     inkscape:window-maximized="1"
     inkscape:current-layer="svg10"
     showguides="false" />
  <g
     transform="translate(0.000000,954.000000) scale(0.100000,-0.100000)"
     fill="#000000"
     stroke="none"
     id="g8">
    <path
       d="m 1880,9340 c -28,-107 -152,-534 -157,-543 -3,-5 -33,44 -67,109 -103,199 -196,322 -311,414 -34,27 -65,50 -68,50 -2,0 -7,-235 -11,-522 -3,-288 -9,-541 -12,-564 -5,-38 -9,-42 -59,-63 -129,-54 -301,-178 -444,-320 -131,-131 -162,-173 -177,-239 -8,-31 -21,-196 -29,-367 -9,-170 -19,-323 -24,-340 l -7,-30 -110,-6 c -140,-7 -231,-36 -285,-90 -47,-47 -58,-93 -35,-152 19,-49 36,-70 91,-115 l 40,-32 v -93 c 0,-106 16,-147 89,-226 27,-29 77,-112 135,-227 96,-187 173,-303 228,-340 62,-41 362,-76 640,-73 l 201,2 56,-28 c 79,-40 176,-123 245,-209 149,-188 228,-363 481,-1066 215,-598 402,-933 687,-1231 164,-172 240,-307 279,-499 24,-118 15,-334 -20,-481 -56,-241 -138,-443 -374,-929 l -159,-325 -124,-6 c -199,-11 -331,-52 -428,-135 -121,-104 -120,-283 2,-390 115,-100 383,-162 651,-151 241,10 442,73 631,200 61,40 61,40 109,161 194,488 637,1627 773,1991 l 30,80 109,6 c 60,3 110,5 110,5 1,-1 54,-137 118,-303 248,-647 362,-1047 342,-1206 -11,-86 -28,-104 -208,-226 -185,-125 -258,-224 -258,-345 1,-179 171,-266 493,-254 173,7 389,43 442,73 65,37 152,136 190,217 55,118 68,209 62,432 -6,207 -15,275 -112,814 -62,349 -107,648 -130,870 -18,184 -18,201 -2,207 6,2 210,77 451,165 l 440,161 25,-19 c 14,-10 317,-221 672,-470 l 646,-451 7,-62 c 14,-137 8,-190 -28,-265 -107,-223 -316,-492 -638,-820 l -188,-191 -79,-11 c -97,-14 -218,-53 -297,-96 -53,-28 -63,-39 -94,-101 -30,-60 -34,-78 -35,-144 0,-59 5,-85 22,-116 47,-89 168,-167 315,-204 65,-16 115,-17 471,-15 219,2 435,8 480,14 216,29 371,92 522,211 91,72 100,84 158,229 133,330 269,615 574,1204 97,186 205,402 241,480 155,340 202,582 148,761 l -16,50 -87,27 c -131,41 -231,104 -344,217 -118,118 -177,207 -325,493 l -116,223 17,131 c 25,190 17,431 -19,569 -30,116 -90,247 -147,323 -27,35 -36,54 -27,57 7,2 101,33 208,68 438,144 763,297 977,459 102,77 162,145 202,228 23,48 26,67 25,155 0,119 -17,181 -81,309 -75,150 -164,275 -438,621 -198,250 -258,329 -342,455 -293,436 -329,736 -117,978 25,29 112,104 192,167 330,256 398,376 247,436 -46,18 -249,15 -315,-4 -167,-49 -408,-298 -535,-552 -68,-137 -88,-238 -82,-410 11,-320 117,-551 543,-1191 296,-443 377,-605 378,-754 1,-89 -23,-147 -85,-205 -163,-152 -564,-225 -1242,-225 -171,0 -287,5 -370,16 -93,12 -174,15 -342,11 -354,-8 -586,-48 -1272,-222 -482,-123 -659,-160 -840,-176 -125,-12 -136,-11 -224,10 -105,26 -255,88 -375,154 l -82,46 -258,6 c -143,3 -314,8 -381,11 l -121,6 -134,95 c -230,165 -350,269 -466,406 l -72,84 49,104 c 61,130 94,223 125,347 69,277 71,523 6,776 -97,378 -254,589 -553,746 -27,14 -50,34 -52,45 -133,609 -240,858 -489,1140 l -44,50 z m -447,-167 c 80,-98 119,-161 198,-317 l 71,-138 -33,-87 c -36,-97 -85,-199 -136,-283 -33,-56 -36,-58 -76,-58 -23,0 -67,-6 -98,-14 l -56,-13 4,306 c 2,168 6,397 9,508 l 6,203 28,-20 c 15,-11 52,-50 83,-87 z m 539,40 c 116,-148 197,-302 267,-508 80,-237 151,-562 151,-691 0,-83 0,-84 25,-84 24,0 24,2 27,90 l 3,90 85,-51 c 106,-64 169,-117 234,-195 99,-120 178,-306 231,-540 23,-102 27,-141 26,-279 0,-269 -54,-498 -176,-754 -30,-62 -55,-115 -55,-117 0,-2 33,-43 74,-91 85,-102 201,-215 301,-295 79,-63 312,-230 341,-246 11,-5 177,-13 386,-17 l 366,-7 146,-73 c 80,-41 190,-89 243,-107 93,-31 105,-33 238,-32 194,2 316,24 870,164 804,202 1100,250 1465,237 260,-9 283,-15 430,-109 273,-175 518,-386 609,-525 91,-138 139,-308 148,-519 6,-128 -12,-364 -26,-364 -12,0 -109,183 -206,388 -88,187 -116,228 -130,189 -9,-23 242,-538 306,-628 11,-16 72,-129 135,-251 177,-341 277,-483 425,-601 81,-65 202,-131 296,-161 28,-9 54,-24 57,-32 19,-48 26,-150 16,-228 -25,-202 -83,-353 -303,-786 C 8495,1131 8440,1016 8309,690 8259,565 8245,540 8208,507 8136,443 8020,371 7935,339 7787,281 7701,269 7425,263 l -251,-5 -36,55 c -68,101 -70,163 -9,258 35,57 39,59 121,80 113,30 214,101 330,235 229,263 504,812 651,1301 27,89 27,95 13,144 -33,111 -198,237 -599,459 -521,288 -598,336 -788,487 -462,368 -686,708 -716,1090 -7,98 0,323 14,451 8,61 7,62 -17,62 -31,0 -33,-10 -50,-238 -39,-551 140,-905 697,-1375 l 29,-24 -97,5 c -53,2 -147,-1 -208,-8 -107,-12 -133,-20 -583,-185 -259,-95 -508,-189 -552,-208 -199,-86 -500,-177 -700,-211 -86,-15 -279,-25 -289,-15 -2,3 5,34 16,69 12,36 23,103 26,150 4,72 1,101 -23,190 -64,240 -24,548 131,1013 26,77 45,140 43,142 -2,2 -15,6 -29,10 -25,6 -26,4 -82,-172 -113,-350 -150,-535 -151,-743 0,-127 3,-159 28,-259 38,-151 34,-213 -24,-381 -69,-200 -470,-1243 -780,-2025 l -87,-220 -83,-52 C 3147,202 2840,142 2560,185 c -264,40 -392,105 -436,221 -73,191 154,343 515,344 l 96,1 152,312 c 234,478 295,621 366,857 89,294 92,580 10,790 -34,85 -93,187 -151,258 -104,128 -277,629 -332,966 -18,104 -39,419 -40,584 0,45 -3,52 -20,52 -19,0 -20,-7 -20,-188 0,-104 5,-238 11,-298 23,-238 96,-532 203,-814 l 54,-145 -54,60 c -91,99 -245,340 -332,517 -97,198 -149,327 -285,703 -148,409 -189,512 -262,660 -134,272 -280,440 -465,536 -43,22 -54,23 -300,24 -210,1 -280,5 -399,24 -79,12 -156,28 -172,37 -43,22 -121,140 -215,326 -52,104 -102,187 -129,218 -76,85 -88,119 -90,244 -1,93 2,116 21,157 30,65 93,131 187,196 42,30 82,63 87,72 14,27 28,166 35,346 9,235 24,404 40,441 20,49 226,256 338,341 151,113 321,191 457,209 l 50,7 -30,-74 c -23,-56 -27,-74 -18,-81 26,-17 40,-1 77,87 20,50 62,135 93,190 32,55 75,145 97,200 37,93 137,414 192,618 13,48 26,87 30,87 3,0 26,-26 51,-57 z m 7154,-214 c 14,-15 14,-19 0,-47 -24,-47 -135,-152 -269,-254 -221,-169 -292,-252 -342,-403 -25,-73 -27,-90 -23,-200 6,-146 37,-248 129,-424 98,-187 193,-319 592,-825 155,-196 245,-327 306,-446 62,-121 81,-190 81,-300 0,-69 -5,-95 -25,-137 -89,-193 -516,-434 -1129,-638 -275,-92 -250,-91 -338,-6 -100,96 -191,167 -336,264 l -123,82 323,7 c 318,6 491,20 663,54 481,94 637,304 490,659 -54,130 -115,232 -350,585 -305,459 -381,595 -460,821 -84,242 -86,459 -5,652 66,157 257,401 386,493 100,72 147,85 291,82 97,-2 126,-6 139,-19 z M 396.15468,6838.281 C 322.15468,6778.281 267,6711 243,6661 c -15,-31 -28,-58 -30,-60 -8,-10 -73,65 -83,94 -30,92 87,167 270,173 l 35,1 M 6860,3179 c 25,-6 77,-32 115,-58 108,-75 238,-152 505,-298 135,-74 303,-169 373,-211 226,-135 347,-249 347,-327 0,-55 -118,-386 -224,-630 -243,-556 -561,-955 -762,-955 -37,0 -48,-5 -83,-42 -103,-109 -125,-222 -64,-330 l 32,-56 -67,-8 c -132,-15 -262,-9 -331,15 -248,86 -320,210 -230,397 17,37 30,46 107,82 91,42 177,66 276,77 l 59,7 166,167 c 319,320 573,641 679,860 41,86 50,156 37,306 l -7,84 -654,457 c -360,251 -654,461 -654,465 0,19 290,18 380,-2 z M 5444,2728 c 18,-238 58,-505 180,-1200 63,-357 79,-512 73,-683 -5,-148 -20,-219 -63,-310 -31,-66 -102,-148 -158,-179 -108,-63 -567,-95 -704,-49 -111,37 -162,95 -162,185 0,101 73,189 262,315 141,93 183,137 197,202 6,29 11,77 11,107 0,169 -130,603 -355,1186 -58,149 -104,272 -103,273 2,1 55,12 118,24 186,37 493,132 634,196 28,13 54,24 57,24 4,1 10,-41 13,-91 z"
       id="path2"
       inkscape:connector-curvature="0"
       sodipodi:nodetypes="ccccscccccccccscccscccccccccccccccccccccccccccccccccccccccccccccsccccccccccccsccccccccccscccccccccccsccccccccccccccccccccccccccscccccccccsscccccccscccccccccccccsccccccccccccccccccccccccscccccccccccccsccccccccccccccccccssccccccccccccccccccccccccccccscccccccccsccccccccccccccccccccccccscsccccccccccccccscccccccsccscccccc" />
    <path
       d="M1064 7721 c-120 -54 -274 -298 -303 -479 -17 -109 23 -214 122 -319 156 -165 338 -145 428 47 63 133 76 266 45 448 -46 267 -145 370 -292 303z m138 -68 c56 -60 87 -161 108 -346 9 -88 8 -108 -10 -184 -24 -101 -71 -196 -113 -225 -89 -63 -221 -10 -311 126 -20 30 -42 79 -50 109 -20 77 -2 162 63 292 105 210 239 307 313 228z"
       id="path6" />
  </g>
</svg>
