<?xml version="1.0" encoding="UTF-8" standalone="no"?>
<!-- Created with Inkscape (http://www.inkscape.org/) -->

<svg
   xmlns:dc="http://purl.org/dc/elements/1.1/"
   xmlns:cc="http://creativecommons.org/ns#"
   xmlns:rdf="http://www.w3.org/1999/02/22-rdf-syntax-ns#"
   xmlns:svg="http://www.w3.org/2000/svg"
   xmlns="http://www.w3.org/2000/svg"
   xmlns:sodipodi="http://sodipodi.sourceforge.net/DTD/sodipodi-0.dtd"
   xmlns:inkscape="http://www.inkscape.org/namespaces/inkscape"
   id="svg8"
   version="1.1"
   viewBox="0 0 264.58333 264.58334"
   height="1000"
   width="1000"
   inkscape:version="0.92.3 (2405546, 2018-03-11)"
   sodipodi:docname="ovelha.svg">
  <sodipodi:namedview
     inkscape:window-maximized="1"
     inkscape:window-y="-8"
     inkscape:window-x="1592"
     inkscape:window-height="1057"
     inkscape:window-width="2560"
     showgrid="false"
     inkscape:current-layer="layer1"
     inkscape:document-units="px"
     inkscape:cy="550.44811"
     inkscape:cx="335.72121"
     inkscape:zoom="0.98994949"
     inkscape:pageshadow="2"
     inkscape:pageopacity="0.0"
     borderopacity="1.0"
     bordercolor="#666666"
     pagecolor="#ffffff"
     id="base"
     units="px" />
  <defs
     id="defs2" />
  <metadata
     id="metadata5">
    <rdf:RDF>
      <cc:Work
         rdf:about="">
        <dc:format>image/svg+xml</dc:format>
        <dc:type
           rdf:resource="http://purl.org/dc/dcmitype/StillImage" />
        <dc:title></dc:title>
      </cc:Work>
    </rdf:RDF>
  </metadata>
  <g
     inkscape:label="Camada 1"
     inkscape:groupmode="layer"
     id="layer1"
     transform="translate(0,-32.416615)">
    <path
       id="path862"
       transform="matrix(0.264583,0,0,0.264583,18.0454,70.7268)"
       style="fill:none;stroke:#000000;stroke-width:0.41574854;stroke-linecap:round;stroke-miterlimit:4;stroke-dasharray:none"
       d="M 167.59646,155.94923 C 173.83746,146.49423 161.679,133.959 157.367,124 c -2.547,-5.882 -10.518,-14.273 -5.813,-20.907 16.024,-22.5929 43.639,11.103 51.004,23.907 17.072,29.678 21.377,77.887 1.894,108 -13.842,21.395 -36.03054,30.88138 -55.85954,4.38938 -14.813,-19.79 -2.08346,-30.95738 5.09554,-48.38938 3.296,-8.001 17.31646,-26.44877 13.90846,-35.05077 m -16.32461,2.04223 c 0.44677,-5.00916 0.84277,-13.08823 -1.55085,-17.98746 -1.938,-3.612 -5.733,-5.586 -7.708,-9.094 -1.74,-3.091 -1.317,-6.869 -3.577,-9.777 -5.152,-6.628 -12.822,-1.251 -19.397,-3.736 -2.867,-1.083 -4.77,-4.631 -8.078,-4.381 -4.281,0.324 -7.319,4.18 -11.961,3.496 -5.6881,-0.838 -8.9882,-7.552 -15,-6.92 -6.7334,0.707 -10.4975,7.977 -17,9.28 C 49.9326,122.293 41.6986,102.816 44.2284,89.0008 45.3545,82.8515 51.3963,82.4881 53.8827,77.7369 56.9495,71.8765 52.9623,63.6873 56.5679,57 61.4282,47.9857 72.0432,37.7996 82,34.8002 c 4.1231,-1.2421 9.9587,0.5626 13.5818,-1.828 2.8724,-1.8952 3.7876,-6.2239 6.1022,-8.7477 3.438,-3.7496 10.33,-6.1469 15.316,-6.7592 9.923,-1.2187 17.607,9.0638 26,8.3665 11.829,-0.9827 17.569,-15.4863 32,-12.723 10.806,2.0692 11.894,13.9041 20.185,17.2839 4.846,1.9752 11.681,-1.4389 16.815,-1.3742 17.596,0.2217 23.03229,10.250057 28.71429,24.624357 C 252.60029,50.911457 264.841,55.1583 271.144,66 c 3.709,6.3788 8.279,16.752 -0.144,21 m 0,0 c 14.717,3.4989 14.335,22.582 26.299,26.106 6.538,1.926 13.997,-11.165 20.701,-13.268 3.475,-1.0901 8.55,-2.1315 11.961,-0.4815 3.183,1.5405 5.139,5.3545 9.054,5.1045 9.491,-0.605 16.687,-9.7671 26.985,-9.1863 12.006,0.6771 15.484,17.8753 26.004,18.4723 8.955,0.508 17.705,-9.45 26.996,-10.563 7.141,-0.855 14.148,1.37 20,5.389 3.35,2.3 7.807,7.63 12.09,7.783 4.4,0.158 9.859,-3.766 13.91,-5.353 8.398,-3.289 18.898,-6.002 28,-4.815 10.672,1.392 15.91,11.221 25.039,14.958 8.749,3.58 19.393,-1.587 28.961,2.308 12.028,4.896 18.17,17.037 29.004,22.518 9.13,4.62 21.189,-0.995 30.996,3.778 10.581,5.15 10.837,15.613 18.299,22.947 7.168,7.044 20.845,3.776 28.516,11.436 10.553,10.538 2.997,23.217 9.213,33.719 2.926,4.945 12.479,4.524 16.829,9.203 9.415,10.129 8.151,33.917 -6.857,37.945 M 67,118.872 c 11.0167,34.838 -40.7165,42.496 -51.9105,68.132 -4.3483,9.958 -2.7357,32.047 5.2392,39.717 3.565,3.429 8.7697,2.569 12.412,5.712 10.1831,8.785 19.7836,19.061 34.2593,19.524 21.7462,0.695 45.29185,-14.80438 64.55585,-22.48238 M 86.314,134.028 c 11.4801,-7.54 22.809,14.975 12.5409,20.943 m 0,0 C 86.8847,161.929 75.9964,140.804 86.314,134.028 M 673,265 c 1.546,4.167 10.126,7.82 11.612,12 0.796,2.239 1.346,4.61 1.254,7 -0.941,24.388 -29.837,-2.334 -38.263,8.279 -2.63,3.312 -0.875,7.9 -1.117,11.721 -0.491,7.774 -1.24,16.676 -4.049,24 -2.709,7.061 -11.255,8.955 -13.834,15.13 -4.176,10.001 -1.438,21.034 -8.403,30.866 -3.527,4.978 -14.269,8.181 -15.6,14.04 -0.907,3.998 4.411,6.818 5.967,10.003 4.301,8.805 8.87,21.361 10.886,30.961 2.056,9.789 -8.316,27.423 -11.529,37 -7.016,20.916 -8.644,43.909 -17.392,63.999 -3.821,8.776 -15.955,11.205 -23.818,5.549 -4.056,5.48 -2.982,13.991 -7.188,19.437 -6.94,8.986 -22.025,9.829 -32.526,10.845 -16.174,1.565 -39.993,-10.117 -26,-31.83 m 65.714,1.548 c 11.997,-5.024 12.439,-23.164 16.233,-33.548 5.766,-15.782 15.838,-34.134 17.268,-51 0.96181,-11.35337 -6.07771,-14.28235 -8.70243,-37.76489 -0.63921,-5.71884 -6.75846,-16.37485 -9.30065,-20.3468 m -65.91828,27.51041 c -5.50968,2.46097 -11.28107,5.87927 -15.29364,6.06728 -4.84,0.105 -9.05,-3.242 -14,-1.752 -10.172,3.061 -17.392,10.014 -29,7.018 -7.771,-2.005 -11.497,-11.749 -20,-11.595 -10.769,0.196 -19.039,9.619 -30,9.848 -4.096,0.085 -7.583,-0.411 -10.946,-2.928 -2.428,-1.817 -4.644,-6.262 -8.108,-5.734 -8.628,1.317 -13.021,9.549 -22.946,7.648 -7.789,-1.493 -14.603,-4.895 -19.787,-10.972 -2.605,-3.054 -5.235,-11.452 -10.228,-10.962 -5.763,0.565 -10.104,9.133 -14.409,12.364 -2.312,1.735 -5.545,1.758 -6.718,4.747 -2.25191,5.73731 -6.79817,12.77672 -9.71067,17.27938 M 247.69488,424.20101 C 246.07257,426.10721 241.33784,445.91794 242,447 c -1.19008,7.01262 3.953,22.906 3.74,30 -0.438,14.632 -8.364,30.546 -13.479,44 -2.733,7.187 -3.769,14.342 -5.261,22 m 75,-5 c 3.28594,-0.40656 9.06382,0.55663 11.42357,-0.67514 10.238,-5.343 6.56443,-21.60086 8.00343,-31.32486 2.605,-17.596 10.694,-36.288 10.568,-54 -0.073,-10.395 -6.917,-22.431 -8.419,-32.599 M 168.14285,326.32143 c -2.616,20.257 -5.93785,44.93257 10.89715,61.63557 11.733,11.641 25.062,3.478 37.941,8.901 6.57,2.766 5.787,10.805 9.152,16.103 2.675,4.209 7.4004,6.22095 10.368,10.129 5.08074,6.69086 1.61049,20.87714 5.499,23.91 m 362.6,-58.964 c -0.02,7.383 -4.08543,21.47711 -11.08743,25.19911 m -85.08872,-12.96357 c 2.44119,3.65218 6.1708,11.3328 9.86979,20.12718 6.12128,14.5534 12.15867,32.15683 12.13436,39.60128 -0.033,10.075 -5.534,19.007 -9.28,28 -6.282,15.08 -12.807,30.605 -18.148,46 M 303.99999,423.32141 c 2.42598,6.02053 1.87361,10.55924 3.14734,18.10597 2.62716,15.56571 6.5823,36.90945 3.42167,47.57262 -4.493,15.161 -6.581,33.279 -8.569,49 m 0,0 c -4.32376,16.53873 -31.578,35.679 -53,32.246 C 233.043,567.689 216.552,562.573 227,543 M 168.14285,326.32143 C 156.52685,330.29443 148.557,320.79 144.559,310 c -6.44088,-16.96572 -27.97729,-68.11392 -13.00315,-80.52538 2.57114,-18.68376 -8.58873,-19.71336 19.716,-71.48316"
       inkscape:connector-curvature="0"
       sodipodi:nodetypes="ccccccccccccccccccccccccccccccccccccccccccccccccccccccccccccccccccccccccccccccccccscccccccccccccccccccccccscccccsccccsccccsccccccccc" />
  </g>
</svg>
