<?xml version="1.0" encoding="UTF-8" standalone="no"?>
<!-- Created with Inkscape (http://www.inkscape.org/) -->

<svg
   xmlns:dc="http://purl.org/dc/elements/1.1/"
   xmlns:cc="http://creativecommons.org/ns#"
   xmlns:rdf="http://www.w3.org/1999/02/22-rdf-syntax-ns#"
   xmlns:svg="http://www.w3.org/2000/svg"
   xmlns="http://www.w3.org/2000/svg"
   xmlns:sodipodi="http://sodipodi.sourceforge.net/DTD/sodipodi-0.dtd"
   xmlns:inkscape="http://www.inkscape.org/namespaces/inkscape"
   width="999"
   height="999"
   viewBox="0 0 264.31875 264.31876"
   version="1.1"
   id="svg8"
   inkscape:version="0.92.3 (2405546, 2018-03-11)"
   sodipodi:docname="passaro.svg">
  <defs
     id="defs2" />
  <sodipodi:namedview
     id="base"
     pagecolor="#ffffff"
     bordercolor="#666666"
     borderopacity="1.0"
     inkscape:pageopacity="0.0"
     inkscape:pageshadow="2"
     inkscape:zoom="5.6"
     inkscape:cx="500.84789"
     inkscape:cy="391.38409"
     inkscape:document-units="mm"
     inkscape:current-layer="layer1"
     showgrid="false"
     units="px"
     inkscape:window-width="2560"
     inkscape:window-height="1057"
     inkscape:window-x="-8"
     inkscape:window-y="-8"
     inkscape:window-maximized="1" />
  <metadata
     id="metadata5">
    <rdf:RDF>
      <cc:Work
         rdf:about="">
        <dc:format>image/svg+xml</dc:format>
        <dc:type
           rdf:resource="http://purl.org/dc/dcmitype/StillImage" />
        <dc:title></dc:title>
      </cc:Work>
    </rdf:RDF>
  </metadata>
  <g
     inkscape:label="Camada 1"
     inkscape:groupmode="layer"
     id="layer1"
     transform="translate(0,-32.681233)">
    <path
       style="fill:none;stroke:#000000;stroke-width:0.6;stroke-linecap:butt;stroke-linejoin:miter;stroke-miterlimit:4;stroke-dasharray:none;stroke-opacity:1"
       d="m 84.15085,100.06498 c 0.0397,-1.179141 -0.968294,-2.641825 -2.695262,-4.110586 -3.184552,-2.708495 -7.671468,-4.009356 -7.186591,3.104912 -0.665167,5.824874 8.633252,9.489474 9.881853,1.005674"
       id="path4498"
       inkscape:connector-curvature="0"
       sodipodi:nodetypes="cscc" />
    <path
       style="fill:none;stroke:#000000;stroke-width:0.60000002;stroke-linecap:butt;stroke-linejoin:miter;stroke-miterlimit:4;stroke-dasharray:none;stroke-opacity:1"
       d="m 131.87318,192.47768 c 0.74336,-1.26196 0.8139,-2.33224 2.34143,-3.87248"
       id="path4487"
       inkscape:connector-curvature="0"
       sodipodi:nodetypes="cc" />
    <path
       style="fill:none;stroke:#000000;stroke-width:0.60000002;stroke-linecap:butt;stroke-linejoin:miter;stroke-miterlimit:4;stroke-dasharray:none;stroke-opacity:1"
       d="m 138.79335,195.51533 c 0.72964,-1.55974 1.79473,-2.78402 2.18436,-4.68377"
       id="path4489"
       inkscape:connector-curvature="0"
       sodipodi:nodetypes="cc" />
    <path
       style="fill:none;stroke:#000000;stroke-width:0.60000002;stroke-linecap:butt;stroke-linejoin:miter;stroke-miterlimit:4;stroke-dasharray:none;stroke-opacity:1"
       d="m 127.95257,191.07197 -2.50381,4.90208 -8.69322,7.49274 3.4821,3.02359 -2.65772,2.23608 4.76028,3.90388 c 5.43288,-5.88096 8.08377,-9.89182 16.45315,-17.11501 4.11863,-1.12355 6.88753,-1.72716 13.19631,-1.92331 9.73636,1.88934 18.26616,3.1203 36.38243,25.62167 14.43459,16.65366 26.43226,26.80892 39.09764,38.74471 v -8.73741 l 8.73744,1.34422 c -3.5146,-4.18672 -6.80527,-8.14949 -12.77007,-14.7864 -6.96486,-6.79252 -22.58911,-26.35459 -33.88387,-39.53212 C 177.79622,182.064 165.54961,159.59305 151.48066,145.51933 134.06911,128.20291 131.42536,118.99618 104.94904,92.381995 89.76582,78.771103 71.958239,85.583354 63.47533,97.996462 c -13.546248,1.568251 -15.94286,4.324608 -18.384526,5.892868 7.514423,2.87123 12.362059,2.0282 18.187676,2.64767 16.189957,9.63658 9.787393,27.8812 20.360023,50.60503 7.830608,17.77412 27.158577,27.28493 44.314067,33.92994 1.36183,0.52749 2.47609,0.78635 3.92061,1.40571 -0.69198,2.15413 -1.37784,3.85127 -2.53137,5.49504 l -9.10417,8.51766"
       id="path4486"
       inkscape:connector-curvature="0"
       sodipodi:nodetypes="ccccccccccccccccccccsccc" />
    <path
       style="fill:none;stroke:#000000;stroke-width:0.6;stroke-linecap:butt;stroke-linejoin:miter;stroke-opacity:1;stroke-miterlimit:4;stroke-dasharray:none"
       d="m 114.65471,161.12774 c 5.38619,3.80201 1.72133,1.89253 11.8813,7.60407 6.03083,0.91129 4.01923,0.60668 6.30111,6.94328 2.81446,7.81556 20.58262,13.86634 31.24389,18.48275 9.70696,6.25321 51.81536,36.46 35.65082,17.80017 -7.91316,-3.74636 1.55799,-3.36875 -12.08936,-10.81641 -1.73378,-3.67059 -4.42003,-5.87517 -7.41819,-7.09675 -3.09266,-1.26008 -2.98872,-5.69779 -6.37045,-8.78371 -2.68389,-5.73349 -9.00683,-7.65731 -7.85715,-14.3221 -0.81487,-7.75961 -24.77539,-30.17118 -35.89623,-41.89086 -4.27727,-5.35502 -2.33525,-5.46155 -10.21795,-11.6437 -33.311542,-16.54648 -35.31225,37.58193 -5.22779,43.72326"
       id="path4549"
       inkscape:connector-curvature="0"
       sodipodi:nodetypes="ccscccsccccc" />
  </g>
</svg>
