<?xml version="1.0" encoding="UTF-8" standalone="no"?>
<!-- Created with Inkscape (http://www.inkscape.org/) -->

<svg
   xmlns:dc="http://purl.org/dc/elements/1.1/"
   xmlns:cc="http://creativecommons.org/ns#"
   xmlns:rdf="http://www.w3.org/1999/02/22-rdf-syntax-ns#"
   xmlns:svg="http://www.w3.org/2000/svg"
   xmlns="http://www.w3.org/2000/svg"
   xmlns:sodipodi="http://sodipodi.sourceforge.net/DTD/sodipodi-0.dtd"
   xmlns:inkscape="http://www.inkscape.org/namespaces/inkscape"
   width="1000"
   height="1000"
   viewBox="0 0 264.58333 264.58334"
   version="1.1"
   id="svg8"
   inkscape:version="0.92.4 (5da689c313, 2019-01-14)"
   sodipodi:docname="peixe.svg">
  <defs
     id="defs2" />
  <sodipodi:namedview
     id="base"
     pagecolor="#ffffff"
     bordercolor="#666666"
     borderopacity="1.0"
     inkscape:pageopacity="0.0"
     inkscape:pageshadow="2"
     inkscape:zoom="7.3896213"
     inkscape:cx="332.96896"
     inkscape:cy="571.99904"
     inkscape:document-units="mm"
     inkscape:current-layer="layer1"
     showgrid="false"
     units="px"
     inkscape:window-width="1280"
     inkscape:window-height="1052"
     inkscape:window-x="3200"
     inkscape:window-y="0"
     inkscape:window-maximized="0"
     showguides="false" />
  <metadata
     id="metadata5">
    <rdf:RDF>
      <cc:Work
         rdf:about="">
        <dc:format>image/svg+xml</dc:format>
        <dc:type
           rdf:resource="http://purl.org/dc/dcmitype/StillImage" />
        <dc:title></dc:title>
      </cc:Work>
    </rdf:RDF>
  </metadata>
  <g
     inkscape:label="Camada 1"
     inkscape:groupmode="layer"
     id="layer1"
     transform="translate(0,-32.41665)">
    <g
       transform="matrix(0.59576174,0,0,0.71771267,-525.59512,-171.62831)"
       id="g128">
      <path
         d="m 1017.5,439.5 c -77.21128,7.70541 -111.6,41.6 -113,43.2 -1.2,1.4 -1.2,3.5 0,4.9 1.4,1.6 31,33.6 115.1,43.5 5.5,11.8 14.5,29.3 21.7,35 2.6,2.1 5.3,3.1 8,3.1 3,0 5.7,-1.3 8,-3.7 4.6,-4.9 6.3,-13.1 6,-19.2 -0.2,-2.6 -1.3,-6.5 -8,-12.6 5.1,0.2 10.3,0.2 15.7,0.2 21,0 42.2,-2.7 62.4,-6.7 29.2,28.8 33.3,28.9 34.7,28.9 v 0 c 0.5,0 0.9,-0.1 1.4,-0.2 1.2,-0.4 2.1,-1.3 2.6,-2.4 1.2,-2.8 -0.3,-6.1 -5.3,-16.1 -2.3,-4.7 -5.3001,-10.7 -7.4001,-16 18.4,-4.6 35.2001,-9.7 49.2001,-14 14.9,-4.6 26.7,-8.2 31.3,-8.2 6.3,0 15.1,10.6 23.5,20.9 11.2,13.6 22.7,27.7 35.7,27.7 v 0 c 2,0 3.7,-1.6 3.7,-3.7 0,-0.6 -0.3,-1.4 -0.8,-2 -7.5,-12.1 -26.3,-45.1 -26.3,-56.8 0,-11.8 19.1,-45.2 26.5,-57.1 0.7,-1.1 0.7,-2.5 0.1,-3.7 -0.6,-1.2 -1.9,-1.9 -3.2,-1.9 -13,0 -24.5,14.1 -35.7,27.7 -8.4,10.3 -17.2,20.9 -23.5,20.9 -4.6,0 -16.4,-3.6 -31.3,-8.2 -17.3,-5.3 -39.1,-11.89998 -63,-17.29998 -2.1,-4.7 -3.3,-8.60002 -3.1,-9.80002 0.6,-1.7 2.1,-5.1 3.6,-8.4 4.8,-10.7 5.6,-12.8 4.1,-15.1 -0.7,-1.1 -1.9,-1.7 -3.2,-1.7 -11.5,0 -28.9,16.4 -38.4,26.3 -9.6,-3.1 -20.2,-5.8 -30.8,-8.4 -6.5,-1.6 -12,-3 -14.9,-4 -11,-3.9 -16,-18.3 -16.1,-18.5 -0.4,-1 -1.2,-1.9 -2.2,-2.3 -1,-0.4 -2.2,-0.3 -3.1,0.3 -11.2,6.8 -20.702,23.70045 -24,35.4"
         id="path122"
         inkscape:connector-curvature="0"
         style="fill:none;stroke:#000000;stroke-width:1.00015235;stroke-miterlimit:4;stroke-dasharray:none;stroke-dashoffset:0;stroke-opacity:1"
         sodipodi:nodetypes="cccccscccsccccccccscccscscsscscccccsccccscc" />
      <path
         d="m 1025.2478,473.9 c -0.8,0.7 -1.3,1.7 -1.3,2.8 v 7.5 c 0.2771,4.4066 5.9654,4.67174 9.4,6.7 5.5,3.1 12.3,6.9 17.7,6.9 0.7,0 1.4,-0.1 2,-0.2 8.2,-1.6 7.8,-8.6 7.5,-14.7 -0.1,-2.4 -0.3,-5.1 -0.1,-8 0.3,-4.9 3.9,-10.5 6.5,-14.6 2.7,-4.3 4.5,-7.1 3.1,-9.9 -0.4,-0.7 -1.5,-2.3 -4.1,-2.4 -15.8987,-0.81149 -30.3772,17.04611 -40.7,25.9"
         id="path124"
         inkscape:connector-curvature="0"
         style="fill:none;stroke:#000000;stroke-width:1;stroke-miterlimit:4;stroke-dasharray:none;stroke-dashoffset:0;stroke-opacity:1"
         sodipodi:nodetypes="csccsccccccc" />
      <path
         d="m 960,480.3 c 0,-6.7 -5.4,-12.1 -12.1,-12.1 -6.7,0 -12.1,5.4 -12.1,12.1 0,6.7 5.4,12.1 12.1,12.1 6.7,0 12.1,-5.4 12.1,-12.1"
         id="path126"
         inkscape:connector-curvature="0"
         style="fill:none;stroke:#000000;stroke-opacity:1"
         sodipodi:nodetypes="csssc" />
    </g>
  </g>
</svg>
