<?xml version="1.0" encoding="UTF-8" standalone="no"?>
<!-- Created with Inkscape (http://www.inkscape.org/) -->

<svg
   xmlns:dc="http://purl.org/dc/elements/1.1/"
   xmlns:cc="http://creativecommons.org/ns#"
   xmlns:rdf="http://www.w3.org/1999/02/22-rdf-syntax-ns#"
   xmlns:svg="http://www.w3.org/2000/svg"
   xmlns="http://www.w3.org/2000/svg"
   xmlns:sodipodi="http://sodipodi.sourceforge.net/DTD/sodipodi-0.dtd"
   xmlns:inkscape="http://www.inkscape.org/namespaces/inkscape"
   width="1000"
   height="1000"
   viewBox="0 0 264.58333 264.58333"
   version="1.1"
   id="svg8"
   inkscape:version="0.92.3 (2405546, 2018-03-11)"
   sodipodi:docname="pinguim.svg"
   inkscape:export-filename="C:\Users\srdcp\Dropbox\Saulo\ProjetoDoutorado\Apps\_SVGs_Artigo\pinguim\pinguim.png"
   inkscape:export-xdpi="95.999992"
   inkscape:export-ydpi="95.999992">
  <defs
     id="defs2" />
  <sodipodi:namedview
     id="base"
     pagecolor="#ffffff"
     bordercolor="#666666"
     borderopacity="1.0"
     inkscape:pageopacity="0.0"
     inkscape:pageshadow="2"
     inkscape:zoom="3.959808"
     inkscape:cx="597.10836"
     inkscape:cy="341.40874"
     inkscape:document-units="mm"
     inkscape:current-layer="layer1"
     showgrid="false"
     units="px"
     inkscape:window-width="1278"
     inkscape:window-height="1008"
     inkscape:window-x="1273"
     inkscape:window-y="0"
     inkscape:window-maximized="0" />
  <metadata
     id="metadata5">
    <rdf:RDF>
      <cc:Work
         rdf:about="">
        <dc:format>image/svg+xml</dc:format>
        <dc:type
           rdf:resource="http://purl.org/dc/dcmitype/StillImage" />
        <dc:title />
      </cc:Work>
    </rdf:RDF>
  </metadata>
  <g
     inkscape:label="Camada 1"
     inkscape:groupmode="layer"
     id="layer1"
     transform="translate(0,-32.416684)">
    <path
       style="fill:none;stroke:#080000;stroke-width:0.78265172;stroke-linecap:butt;stroke-linejoin:miter;stroke-miterlimit:4;stroke-dasharray:none;stroke-opacity:1"
       d="m 70.74468,57.848967 c 3.398515,-2.5284 3.480272,-5.1408 14.567807,-7.85355 4.629318,-2.08543 10.056827,-8.475325 18.111183,-9.40951 13.995,0.985469 20.81168,16.02506 24.93596,24.81999 2.27476,6.81541 4.08499,11.53459 6.03689,16.89216 0.4967,6.9493 -42.301489,8.47033 -43.834525,-0.59266 1.287026,-1.60614 2.823256,-3.15573 1.574777,-5.3343 -2.087677,-2.96112 -3.426997,-11.32972 -8.924481,-15.41048 -3.112978,-1.50828 -11.229198,-2.53506 -12.467611,-3.11165"
       id="path4496"
       inkscape:connector-curvature="0"
       sodipodi:nodetypes="ccccccccc" />
    <path
       style="fill:none;stroke:#080000;stroke-width:0.78265172;stroke-linecap:butt;stroke-linejoin:miter;stroke-miterlimit:4;stroke-dasharray:none;stroke-opacity:1"
       d="m 134.39652,82.298057 c 18.41441,23.517963 19.34076,45.545653 25.67302,68.034063 2.75353,21.8087 2.77784,41.34679 -1.11344,57.62741 1.87898,5.42582 4.08892,7.48694 6.31041,9.4306 2.47969,1.76558 5.51901,3.12336 5.94632,5.29675 0.58221,2.96126 -0.53702,3.96551 -3.7187,4.97144 -3.22395,0.98087 -6.86357,0.7102 -11.13639,-1.4669 -2.5824,15.98575 -6.43317,32.78972 5.19697,39.60597 26.8471,1.58202 26.38527,7.38784 28.5827,12.78229 0.84263,8.08944 -31.226,3.03984 -46.95758,4.19108 -0.84508,2.49764 -4.08327,3.66745 -7.60946,5.02992 -10.57022,0.0898 -20.42597,0.38144 -28.21196,1.25713 -3.19867,-1.01263 -7.510278,-1.83677 -17.631683,-1.67682 -7.832644,-2.20961 -7.842222,-8.9025 -1.299305,-11.10657 h 12.992298 c -17.733816,-7.23953 -12.497567,-62.74584 -18.560734,-94.50898 -4.342553,-34.71545 -0.796969,-46.49342 0.185858,-65.80005 0.849997,-15.15878 2.505061,-28.499913 7.517151,-34.259993"
       id="path4498"
       inkscape:connector-curvature="0"
       sodipodi:nodetypes="ccccsccccccccccccc" />
    <path
       style="fill:none;stroke:#080000;stroke-width:0.06902544px;stroke-linecap:butt;stroke-linejoin:miter;stroke-opacity:1"
       d="M 88.427422,276.27386 Z"
       id="path4500"
       inkscape:connector-curvature="0" />
    <path
       style="fill:none;stroke:#080000;stroke-width:0.78265172;stroke-linecap:butt;stroke-linejoin:miter;stroke-miterlimit:4;stroke-dasharray:none;stroke-opacity:1"
       d="m 88.427422,276.27442 c -2.540168,3.43321 -1.813668,5.54857 0.834776,6.88943 14.950082,1.27154 17.763522,4.40592 18.096212,5.89396"
       id="path4502"
       inkscape:connector-curvature="0"
       sodipodi:nodetypes="ccc" />
    <path
       style="fill:none;stroke:#080000;stroke-width:0.78265172;stroke-linecap:butt;stroke-linejoin:miter;stroke-miterlimit:4;stroke-dasharray:none;stroke-opacity:1"
       d="m 101.41972,276.27386 c 12.00013,1.39907 15.76816,-3.46231 16.63706,-10.60537 -3.17141,-8.13409 -4.57186,-15.67993 -3.60917,-21.78276"
       id="path4504"
       inkscape:connector-curvature="0"
       sodipodi:nodetypes="ccc" />
    <path
       style="fill:none;stroke:#080000;stroke-width:1.04353559;stroke-linecap:butt;stroke-linejoin:miter;stroke-miterlimit:4;stroke-dasharray:none;stroke-opacity:1"
       d="m 143.17983,282.77076 c -1.76726,-14.04219 0.63591,-19.69083 3.57284,-28.28979 -0.50406,-8.22681 1.39407,-19.10565 -4.22249,-21.68856"
       id="path4506"
       inkscape:connector-curvature="0"
       sodipodi:nodetypes="ccc" />
    <path
       style="fill:none;stroke:#080000;stroke-width:0.78265172;stroke-linecap:butt;stroke-linejoin:miter;stroke-miterlimit:4;stroke-dasharray:none;stroke-opacity:1"
       d="m 165.26651,217.39013 c 1.22002,1.92419 3.33181,4.14385 3.56214,6.15125 0.17938,1.56335 -0.29171,2.48476 -1.33452,4.11694"
       id="path4508"
       inkscape:connector-curvature="0"
       sodipodi:nodetypes="csc" />
    <path
       style="fill:none;stroke:#080000;stroke-width:0.78265172;stroke-linecap:butt;stroke-linejoin:miter;stroke-miterlimit:4;stroke-dasharray:none;stroke-opacity:1"
       d="m 156.35774,226.19142 c -24.2566,-23.66554 -22.44661,-39.78498 -28.9829,-58.32042 l -4.26546,-26.96863"
       id="path4510"
       inkscape:connector-curvature="0"
       sodipodi:nodetypes="ccc" />
    <path
       style="fill:none;stroke:#080000;stroke-width:0.78265172;stroke-linecap:butt;stroke-linejoin:miter;stroke-miterlimit:4;stroke-dasharray:none;stroke-opacity:1"
       d="m 158.95561,207.95953 c -5.09287,-14.29138 -12.89801,-22.58902 -8.16557,-63.91363 -4.48496,-1.63996 -7.98757,-11.94679 -15.21967,-17.60264"
       id="path4512"
       inkscape:connector-curvature="0"
       sodipodi:nodetypes="ccc" />
    <path
       style="fill:none;stroke:#080000;stroke-width:0.78265172;stroke-linecap:butt;stroke-linejoin:miter;stroke-miterlimit:4;stroke-dasharray:none;stroke-opacity:1"
       d="m 95.433399,51.474587 c 1.425006,-4.423105 3.564976,-3.86537 4.361452,-2.51453 0.690649,5.55133 -2.948227,3.81464 -4.361452,2.51453"
       id="path4514"
       inkscape:connector-curvature="0"
       sodipodi:nodetypes="ccc" />
  </g>
</svg>
