<?xml version="1.0" encoding="UTF-8" standalone="no"?>
<!-- Created with Inkscape (http://www.inkscape.org/) -->

<svg
   xmlns:osb="http://www.openswatchbook.org/uri/2009/osb"
   xmlns:dc="http://purl.org/dc/elements/1.1/"
   xmlns:cc="http://creativecommons.org/ns#"
   xmlns:rdf="http://www.w3.org/1999/02/22-rdf-syntax-ns#"
   xmlns:svg="http://www.w3.org/2000/svg"
   xmlns="http://www.w3.org/2000/svg"
   xmlns:sodipodi="http://sodipodi.sourceforge.net/DTD/sodipodi-0.dtd"
   xmlns:inkscape="http://www.inkscape.org/namespaces/inkscape"
   width="1066.6666"
   height="1066.6666"
   viewBox="0 0 282.22222 282.2222"
   version="1.1"
   id="svg8"
   inkscape:version="0.92.3 (2405546, 2018-03-11)"
   sodipodi:docname="unicornio.svg"
   inkscape:export-filename="C:\Users\srdcp\Dropbox\ProjetoDoutorado\ProjetoDoutorado\Apps\_SVGs_Artigo\unicornio\unicornio_opencv.png"
   inkscape:export-xdpi="104.80947"
   inkscape:export-ydpi="104.80947">
  <defs
     id="defs2">
    <linearGradient
       id="linearGradient6015"
       osb:paint="solid">
      <stop
         style="stop-color:#ffffff;stop-opacity:1;"
         offset="0"
         id="stop6013" />
    </linearGradient>
  </defs>
  <sodipodi:namedview
     id="base"
     pagecolor="#ffffff"
     bordercolor="#666666"
     borderopacity="1.0"
     inkscape:pageopacity="0.0"
     inkscape:pageshadow="2"
     inkscape:zoom="0.98995202"
     inkscape:cx="123.08422"
     inkscape:cy="838.08827"
     inkscape:document-units="px"
     inkscape:current-layer="layer1"
     showgrid="false"
     inkscape:window-width="2560"
     inkscape:window-height="1057"
     inkscape:window-x="-8"
     inkscape:window-y="-8"
     inkscape:window-maximized="1"
     units="px" />
  <metadata
     id="metadata5">
    <rdf:RDF>
      <cc:Work
         rdf:about="">
        <dc:format>image/svg+xml</dc:format>
        <dc:type
           rdf:resource="http://purl.org/dc/dcmitype/StillImage" />
        <dc:title />
      </cc:Work>
    </rdf:RDF>
  </metadata>
  <g
     inkscape:label="Camada 1"
     inkscape:groupmode="layer"
     id="layer1"
     transform="translate(0,-14.777804)">
    <path
       style="fill:none;fill-opacity:1;stroke:#130000;stroke-width:1;stroke-linecap:butt;stroke-linejoin:miter;stroke-miterlimit:4;stroke-dasharray:none;stroke-opacity:1"
       d="M 68.171558,48.76122 C 58.333165,42.063487 48.974154,36.323419 37.88927,27.135871 c 11.785526,5.878138 22.740702,12.45892 33.503882,18.566442 0.597725,0.339177 1.194858,0.676894 1.791508,1.01295 l 1.559759,-1.710792 0.296621,-14.531899 2.52461,5.70884 c 1.284247,-1.499684 1.81722,-3.323385 2.411851,-5.70884 0.752105,3.381362 0.830705,6.381561 2.672643,10.379888 31.248506,-1.412301 46.787226,6.80406 53.445366,20.463781 6.35541,11.272041 11.00497,27.229835 16.36304,41.241309 1.61446,5.72299 1.35869,17.17841 12.67332,29.00167 6.60342,6.90004 18.74516,10.93887 31.2924,14.40039 1.86833,-0.0511 23.47971,17.2289 25.67351,17.22252 5.7522,-0.38367 18.41802,-12.69488 27.12416,7.86684 5.26753,15.34703 -3.84855,29.59062 12.06926,48.58644 2.23131,2.04264 14.69162,23.52544 -2.27076,35.04715 10.89832,-13.75847 -6.68978,-21.28171 -16.33053,-38.55476 -13.21797,-19.98145 -6.29598,-31.36924 -16.0342,-48.93458 l -3.26562,-0.35066 c 1.95022,4.22985 2.00755,7.33478 1.47717,10.28328 -0.40757,2.26573 -1.16216,4.43909 -1.67156,6.95953 -0.6613,3.43093 -1.68725,6.82836 -3.07203,10.09565 -6.43762,4.32151 -5.81522,7.21798 -12.47003,11.86334 3.96965,19.81111 12.97105,16.057 12.85386,22.94389 -5.3003,11.46894 -12.11703,20.18852 -14.37529,33.17691 l -7.14364,1.83397 c -0.18886,1.79485 0.1105,3.10534 -2.02467,4.6225 -3.28561,0.004 -6.86894,-0.10051 -12.36533,-0.92295 0.50799,-2.43317 -0.20774,-4.18448 9.09972,-7.08479 6.97392,-6.15104 10.11233,-13.34681 14.20059,-20.28404 0.58076,-8.10212 -4.50458,-13.76943 -10.13177,-18.04348 -3.71804,-2.82383 -5.65607,-9.86339 -10.8986,-12.98018 -2.04634,7.12904 -0.30023,13.24795 1.78223,19.27731 -4.83065,7.84318 -22.69817,11.45453 -33.84896,27.87809 -3.32587,0.79728 -9.30494,-0.15062 -5.04754,5.63478 -1.91582,2.71224 -0.8493,5.5682 -9.27245,6.15825 l -2.60488,0.14453 c -3.92578,-7.48956 14.65246,-24.9129 33.25514,-37.73923 7.60632,-16.75714 -10.63752,-13.80599 -6.42068,-48.32299 -19.01927,-5.29272 -39.7008,-11.9654 -59.47183,-30.39483 -3.4865,-3.24992 -6.944684,-6.86544 -10.360449,-10.90347 -1.806109,-0.64137 -9.588243,-0.67217 -15.792287,-1.13044 -3.959112,1.85864 -10.0079,2.88229 -16.924335,3.55916 -4.847028,3.83079 -4.34905,11.69565 -0.296896,22.24256 -5.196977,2.71307 3.536121,4.25686 5.047555,5.63533 0.814596,3.09534 2.345747,6.16018 -2.375468,9.4905 -2.238265,-0.64606 -4.406543,1.15206 -6.828948,-5.93217 -0.06831,-6.47641 -7.340534,-10.24672 -4.453757,-15.71811 3.062306,-12.51705 -5.932139,-15.96277 1.632804,-21.42721 -11.509336,-2.26479 -24.268202,9.42503 -33.997172,16.83053 -0.326645,3.98028 1.98386,9.46554 -3.785751,11.04706 -2.658617,1.70052 -10.2557781,7.76583 -6.680691,-1.48278 0.216994,-3.39994 4.163247,-9.15566 7.645682,-15.05092 8.900767,-4.82779 17.871688,-11.48427 27.762107,-18.68447 25.61466,-3.01325 34.030029,-1.90359 36.81821,-5.04167 -2.60321,-6.47283 -2.949266,-18.24228 11.950935,-26.691106 3.401137,-3.81357 2.558771,-16.334794 3.636941,-25.060759 0,0 0.932632,-2.157149 -3.414752,-3.114216 -1.183432,1.847002 -2.455734,3.659329 -7.12557,4.15201 -9.223021,-0.222761 -12.496682,6.34994 -21.08147,8.304024 -0.640457,6.04118 -2.850672,4.262976 -5.715784,5.264151 -3.469189,0.998958 -6.855887,-0.931269 -8.01682,-4.077663 -3.404753,-5.78846 8.967227,-14.44313 13.064652,-22.243097 -0.48437,-4.75538 2.196051,-9.290495 4.527912,-11.566375 -0.771799,-0.53442 -1.539663,-1.060979 -2.30463,-1.581749"
       id="path21"
       inkscape:connector-curvature="0"
       sodipodi:nodetypes="ccsccccccccsccccccccsccccccccccsccccccccsccccccccccccccccccccccccc"
       inkscape:export-xdpi="96"
       inkscape:export-ydpi="96" />
    <path
       style="fill:none;fill-opacity:1;stroke:#000000;stroke-width:1;stroke-linecap:butt;stroke-linejoin:miter;stroke-miterlimit:4;stroke-dasharray:none;stroke-opacity:1"
       d="m 164.89689,182.31838 c 0.26969,-6.09488 2.44769,-10.91877 6.91562,-14.21803"
       id="path833"
       inkscape:connector-curvature="0"
       sodipodi:nodetypes="cc"
       inkscape:export-xdpi="96"
       inkscape:export-ydpi="96" />
    <path
       style="fill:none;fill-opacity:1;stroke:#000000;stroke-width:1;stroke-linecap:butt;stroke-linejoin:miter;stroke-miterlimit:4;stroke-dasharray:none;stroke-opacity:1"
       d="m 186.86851,209.30619 c 0.72904,-4.93294 26.79588,-9.73038 36.32719,-25.22082"
       id="path835"
       inkscape:connector-curvature="0"
       sodipodi:nodetypes="cc"
       inkscape:export-xdpi="96"
       inkscape:export-ydpi="96" />
    <path
       style="fill:none;fill-opacity:1;stroke:#000000;stroke-width:1;stroke-linecap:butt;stroke-linejoin:miter;stroke-miterlimit:4;stroke-dasharray:none;stroke-opacity:1"
       d="m 224.86726,177.12584 c -0.14105,-5.67645 -4.12541,-8.41681 -7.56852,-9.81763"
       id="path837"
       inkscape:connector-curvature="0"
       sodipodi:nodetypes="cc"
       inkscape:export-xdpi="96"
       inkscape:export-ydpi="96" />
    <path
       style="fill:none;fill-opacity:1;stroke:#000000;stroke-width:1;stroke-linecap:butt;stroke-linejoin:miter;stroke-miterlimit:4;stroke-dasharray:none;stroke-opacity:1"
       d="m 79.086804,139.90819 c -6.382071,-2.84155 -14.064219,-4.043 -24.199045,-2.14994"
       id="path839"
       inkscape:connector-curvature="0"
       sodipodi:nodetypes="cc"
       inkscape:export-xdpi="96"
       inkscape:export-ydpi="96" />
    <path
       style="fill:none;fill-opacity:1;stroke:#040000;stroke-width:1;stroke-linecap:butt;stroke-linejoin:miter;stroke-miterlimit:4;stroke-dasharray:none;stroke-opacity:1"
       d="m 94.879091,141.03863 c 15.258469,-5.34267 41.111729,-2.51946 40.401539,-19.91312"
       id="path841"
       inkscape:connector-curvature="0"
       sodipodi:nodetypes="cc"
       inkscape:export-xdpi="96"
       inkscape:export-ydpi="96" />
    <path
       style="fill:none;fill-opacity:1;stroke:#000000;stroke-width:1;stroke-linecap:butt;stroke-linejoin:miter;stroke-miterlimit:4;stroke-dasharray:none;stroke-opacity:1"
       d="m 82.650144,125.376 c 1.817995,-0.53075 2.231326,-2.64396 2.482852,-5.15556 0.368739,-3.68205 0.389726,-8.22033 3.978883,-9.88418"
       id="path843"
       inkscape:connector-curvature="0"
       sodipodi:nodetypes="csc"
       inkscape:export-xdpi="96"
       inkscape:export-ydpi="96" />
    <path
       style="fill:none;fill-opacity:1;stroke:#000000;stroke-width:1;stroke-linecap:butt;stroke-linejoin:miter;stroke-miterlimit:4;stroke-dasharray:none;stroke-opacity:1"
       d="m 77.56565,36.181412 2.391854,4.940137 2.69264,-0.269089"
       id="path847"
       inkscape:connector-curvature="0"
       inkscape:export-xdpi="96"
       inkscape:export-ydpi="96"
       sodipodi:nodetypes="ccc" />
    <path
       style="fill:none;fill-opacity:1;stroke:#000000;stroke-width:1;stroke-linecap:butt;stroke-linejoin:miter;stroke-miterlimit:4;stroke-dasharray:none;stroke-opacity:1"
       d="m 79.957504,41.121549 0.10526,7.549463"
       id="path849"
       inkscape:connector-curvature="0"
       inkscape:export-xdpi="96"
       inkscape:export-ydpi="96"
       sodipodi:nodetypes="cc" />
    <path
       style="fill:none;fill-opacity:1;stroke:#000000;stroke-width:1;stroke-linecap:butt;stroke-linejoin:miter;stroke-miterlimit:4;stroke-dasharray:none;stroke-opacity:1"
       d="m 74.744419,45.004471 1.119272,3.456819"
       id="path851"
       inkscape:connector-curvature="0"
       sodipodi:nodetypes="cc"
       inkscape:export-xdpi="96"
       inkscape:export-ydpi="96" />
    <path
       style="fill:none;fill-opacity:1;stroke:#000000;stroke-width:1;stroke-linecap:butt;stroke-linejoin:miter;stroke-miterlimit:4;stroke-dasharray:none;stroke-opacity:1"
       d="m 73.18466,46.715263 -2.708472,3.627706"
       id="path853"
       inkscape:connector-curvature="0"
       sodipodi:nodetypes="cc"
       inkscape:export-xdpi="96"
       inkscape:export-ydpi="96" />
    <path
       style="fill:none;fill-opacity:1;stroke:#000000;stroke-width:1;stroke-linecap:butt;stroke-linejoin:miter;stroke-miterlimit:4;stroke-dasharray:none;stroke-opacity:1"
       d="m 69.145006,58.317703 c 1.085665,-3.350292 2.907605,-3.025444 5.038943,-1.153474 -1.457275,1.968508 -4.446813,3.784441 -5.038943,1.153474"
       id="path855"
       inkscape:connector-curvature="0"
       sodipodi:nodetypes="ccc"
       inkscape:export-xdpi="96"
       inkscape:export-ydpi="96" />
    <path
       style="fill:none;stroke:#000000;stroke-width:1;stroke-linecap:butt;stroke-linejoin:miter;stroke-miterlimit:4;stroke-dasharray:none;stroke-opacity:1"
       d="m 223.39009,166.84256 -1.29231,-3.66043"
       id="path8429"
       inkscape:connector-curvature="0"
       inkscape:export-xdpi="96"
       inkscape:export-ydpi="96"
       sodipodi:nodetypes="cc" />
  </g>
</svg>
